<?xml version="1.0" standalone="no"?>
<!DOCTYPE svg PUBLIC "-//W3C//DTD SVG 1.1//EN" "http://www.w3.org/Graphics/SVG/1.1/DTD/svg11.dtd" >
<svg xmlns="http://www.w3.org/2000/svg">
<metadata>Generated by IcoMoon</metadata>
<defs>
<font id="icomoon" horiz-adv-x="1024">
<font-face units-per-em="1024" ascent="960" descent="-64" />
<missing-glyph horiz-adv-x="1024" />
<glyph unicode="&#x20;" horiz-adv-x="512" d="" />
<glyph unicode="&#xe900;" glyph-name="accessibility" d="M512 736.001c-22.153 0-43.806 6.569-62.225 18.876s-32.774 29.798-41.251 50.264c-8.477 20.465-10.695 42.985-6.374 64.711s14.988 41.682 30.651 57.346c15.663 15.663 35.622 26.33 57.348 30.652s44.245 2.104 64.708-6.373c20.467-8.477 37.956-22.832 50.266-41.25 12.305-18.418 18.876-40.073 18.876-62.224-0.034-29.694-11.844-58.164-32.841-79.161s-49.468-32.807-79.159-32.839zM864 734.402l-0.9-0.24-0.841-0.26c-2.001-0.56-3.998-1.16-5.999-1.78-37.222-10.92-217.86-61.84-345.122-61.84-118.259 0-282.559 44-335.119 58.94-5.231 2.023-10.573 3.746-16 5.16-38 10-64-28.6-64-63.88 0-34.94 31.4-51.58 63.1-63.52v-0.56l190.44-59.48c19.46-7.46 24.66-15.081 27.2-21.681 8.26-21.18 1.66-63.117-0.68-77.76l-11.6-89.997-64.38-352.384c-0.2-0.96-0.38-1.937-0.54-2.94l-0.46-2.539c-4.64-32.299 19.080-63.642 64-63.642 39.2 0 56.5 27.063 63.998 63.881 0 0 56 315.14 84.002 315.14 27.998 0 85.679-315.14 85.679-315.14 7.501-36.817 24.802-63.881 64-63.881 45.039 0 68.762 31.484 64 63.881-0.418 2.761-0.917 5.483-1.519 8.119l-65.259 349.461-11.58 90.001c-8.38 52.42-1.643 69.739 0.64 73.801 0.060 0.094 0.111 0.196 0.158 0.299 2.159 4.002 12.002 12.96 34.961 21.58l178.56 62.42c1.097 0.292 2.176 0.639 3.238 1.040 32 12 64 28.6 64 63.86s-25.98 73.92-63.979 63.94z" />
<glyph unicode="&#xe901;" glyph-name="add" d="M512 768c17.673 0 32-14.327 32-32v-576c0-17.673-14.327-32-32-32s-32 14.327-32 32v576c0 17.673 14.327 32 32 32zM192 448c0 17.673 14.327 32 32 32h576c17.673 0 32-14.327 32-32s-14.327-32-32-32h-576c-17.673 0-32 14.327-32 32z" />
<glyph unicode="&#xe902;" glyph-name="add-circle" d="M512 864c-229.38 0-416-186.62-416-416s186.62-416 416-416c229.38 0 416 186.62 416 416s-186.62 416-416 416zM672 416h-128v-128c0-8.486-3.371-16.627-9.374-22.626-5.999-6.003-14.14-9.374-22.626-9.374s-16.627 3.371-22.626 9.374c-6.003 5.999-9.374 14.14-9.374 22.626v128h-128c-8.487 0-16.626 3.371-22.627 9.374-6.001 5.999-9.373 14.14-9.373 22.626s3.372 16.627 9.373 22.626c6.001 6.003 14.141 9.374 22.627 9.374h128v128c0 8.487 3.371 16.626 9.374 22.627 5.999 6.001 14.14 9.373 22.626 9.373s16.627-3.372 22.626-9.373c6.003-6.001 9.374-14.141 9.374-22.627v-128h128c8.486 0 16.627-3.371 22.626-9.374 6.003-5.999 9.374-14.14 9.374-22.626s-3.371-16.627-9.374-22.626c-5.999-6.003-14.14-9.374-22.626-9.374z" />
<glyph unicode="&#xe903;" glyph-name="airplane" d="M373.24 32h-53.24c-5.35 0-10.613 1.344-15.31 3.904-4.696 2.564-8.676 6.259-11.575 10.756s-4.624 9.647-5.018 14.985c-0.394 5.333 0.556 10.684 2.763 15.556l128.92 284.497-193.58 4.301-70.6-85.538c-13.46-16.922-24.2-24.461-51.6-24.461h-35.84c-5.675-0.183-11.31 1.007-16.428 3.465s-9.568 6.114-12.973 10.654c-4.76 6.421-9.44 17.301-4.88 32.823l39.64 141.999c0.3 1.058 0.66 2.121 1.060 3.157 0.020 0.102 0.020 0.205 0 0.303-0.413 1.037-0.767 2.099-1.060 3.179l-39.68 142.9c-4.3 15.22 0.4 25.86 5.12 32.12 3.169 4.206 7.281 7.609 12.005 9.936s9.929 3.514 15.194 3.464h37.84c20.46 0 40.32-9.18 52-24l69.14-84.1 194.64 2.88-128.88 284c-2.21 4.871-3.163 10.218-2.773 15.552s2.111 10.486 5.005 14.984c2.895 4.498 6.87 8.199 11.564 10.764s9.955 3.913 15.304 3.919h53.82c7.508-0.151 14.887-1.991 21.586-5.385s12.549-8.252 17.114-14.215l250.102-304 115.537 3.040c8.461 0.46 31.902 0.62 37.321 0.62 110.519-0.060 176.521-35.939 176.521-96.060 0-18.918-7.561-53.999-58.138-76.318-29.862-13.201-69.7-19.883-118.421-19.883-5.359 0-28.74 0.162-37.321 0.619l-115.52 3.081-250.72-304c-4.568-5.935-10.412-10.769-17.1-14.148-6.688-3.375-14.049-5.201-21.539-5.35z" />
<glyph unicode="&#xe904;" glyph-name="alarm" d="M307.181 739.080c4.205 4.16 7.502 9.147 9.683 14.646s3.2 11.389 2.991 17.3c-0.209 5.911-1.64 11.716-4.203 17.047s-6.204 10.073-10.691 13.927c-22.582 19.272-51.272 29.903-80.96 30l-6.54-0.18h-0.96c-67.7-4.12-120.5-62.92-120.36-133.82 0-38 16-58.12 28.64-74.22 3.547-4.501 7.994-8.213 13.056-10.899s10.629-4.287 16.344-4.701c0.52 0 1.4-0.1 4-0.1 5.141 0.008 10.228 1.055 14.954 3.080s8.993 4.984 12.546 8.701l121.5 119.22zM807.578 831.78l-6.541 0.2h-1.041c-29.713-0.077-58.436-10.71-81.037-30-4.484-3.854-8.115-8.593-10.675-13.921s-3.989-11.127-4.198-17.033c-0.209-5.906 0.806-11.792 2.987-17.287 2.176-5.495 5.466-10.479 9.664-14.639l121.54-119.3c3.563-3.73 7.842-6.699 12.582-8.727s9.843-3.073 14.997-3.073c2.56 0 3.443 0 4.002 0.1 5.713 0.416 11.273 2.019 16.333 4.705s9.502 6.397 13.047 10.895c12.719 16.1 28.561 36.16 28.638 74.22 0.119 70.98-52.681 129.78-120.299 133.86zM512.141 768c-194 0-352-157.9-352-352-0.069-82.295 28.826-161.993 81.62-225.118l-72.24-72.26c-3.042-2.957-5.466-6.49-7.132-10.389s-2.538-8.094-2.568-12.335c-0.030-4.241 0.783-8.448 2.393-12.373s3.983-7.488 6.984-10.487c3-2.999 6.566-5.372 10.491-6.98s8.131-2.419 12.372-2.385c4.241 0.030 8.434 0.905 12.335 2.573s7.43 4.092 10.385 7.134l72.24 72.243c63.164-52.736 142.837-81.621 225.12-81.621s161.958 28.885 225.122 81.621l72.256-72.243c2.957-3.042 6.485-5.466 10.385-7.134 3.904-1.668 8.094-2.543 12.335-2.573 4.245-0.034 8.448 0.777 12.373 2.385s7.492 3.981 10.492 6.98c2.999 2.999 5.372 6.562 6.985 10.487 1.609 3.925 2.423 8.132 2.394 12.373s-0.905 8.435-2.569 12.335c-1.668 3.9-4.092 7.433-7.134 10.389l-72.26 72.26c52.804 63.121 81.702 142.822 81.621 225.118 0 194-157.901 352-352 352zM544.141 416c0-8.486-3.371-16.627-9.374-22.626-5.999-6.003-14.14-9.374-22.626-9.374h-160c-8.487 0-16.626 3.371-22.627 9.374-6.001 5.999-9.373 14.14-9.373 22.626s3.372 16.627 9.373 22.626c6.001 6.003 14.141 9.374 22.627 9.374h128v192c0 8.487 3.371 16.626 9.374 22.627 5.999 6.001 14.14 9.373 22.626 9.373s16.627-3.372 22.626-9.373c6.003-6.001 9.374-14.141 9.374-22.627v-224z" />
<glyph unicode="&#xe905;" glyph-name="albums" d="M736 768h-448c-8.487 0-16.626 3.372-22.627 9.373s-9.373 14.141-9.373 22.627c0 8.487 3.372 16.626 9.373 22.627s14.141 9.373 22.627 9.373h448c8.486 0 16.627-3.372 22.626-9.373 6.003-6.001 9.374-14.141 9.374-22.627s-3.371-16.626-9.374-22.627c-5.999-6.001-14.14-9.373-22.626-9.373zM800 672h-576c-8.487 0-16.626 3.372-22.627 9.373s-9.373 14.141-9.373 22.627c0 8.487 3.372 16.626 9.373 22.627s14.141 9.373 22.627 9.373h576c8.486 0 16.627-3.372 22.626-9.373 6.003-6.001 9.374-14.141 9.374-22.627s-3.371-16.626-9.374-22.627c-5.999-6.001-14.14-9.373-22.626-9.373zM838.259 64h-652.519c-23.792 0.026-46.603 9.489-63.427 26.313s-26.287 39.633-26.313 63.428v396.519c0.026 23.792 9.489 46.603 26.313 63.427s39.634 26.287 63.427 26.313h652.519c23.795-0.026 46.605-9.489 63.428-26.313s26.287-39.634 26.313-63.427v-396.519c-0.026-23.795-9.489-46.605-26.313-63.428s-39.633-26.287-63.428-26.313z" />
<glyph unicode="&#xe906;" glyph-name="alert" d="M448.034 766.42c-2.223 38.227 31.177 65.58 63.962 65.58 32.781 0 66.185-27.353 63.962-65.58l-15.97-431.171c-0.192-12.459-5.227-24.367-14.050-33.19-9.003-9.003-21.21-14.059-33.941-14.059s-24.939 5.056-33.941 14.059c-8.823 8.823-13.858 20.732-14.054 33.19l-15.966 431.171zM512.623 767.526c0 0-0.004 0.003-0.009 0.010 0.004-0.006 0.009-0.010 0.009-0.010zM511.369 767.526c0 0 0 0.004 0.009 0.010-0.009-0.007-0.009-0.010-0.009-0.010zM448 128c0 35.345 28.655 64 64 64s64-28.655 64-64c0-35.345-28.655-64-64-64s-64 28.655-64 64z" />
<glyph unicode="&#xe907;" glyph-name="alert-circle" d="M512 864c-229.38 0-416-186.62-416-416s186.62-416 416-416c229.38 0 416 186.62 416 416s-186.62 416-416 416zM512 224.179c-7.91 0-15.646 2.347-22.221 6.741-6.579 4.395-11.708 10.641-14.733 17.954-3.029 7.309-3.823 15.351-2.278 23.108 1.545 7.761 5.355 14.886 10.948 20.48s12.719 9.404 20.48 10.948c7.761 1.545 15.804 0.751 23.113-2.274 7.309-3.029 13.555-8.158 17.95-14.733 4.395-6.579 6.741-14.315 6.741-22.225 0-10.607-4.215-20.783-11.716-28.284s-17.677-11.716-28.284-11.716zM555.439 626.48l-11.477-243.999c0-8.486-3.375-16.627-9.374-22.63-6.003-5.999-14.14-9.37-22.626-9.37-8.491 0-16.627 3.371-22.63 9.37-5.999 6.003-9.37 14.144-9.37 22.63l-11.482 243.879v0.1c-0.252 5.861 0.687 11.713 2.756 17.203s5.227 10.504 9.284 14.74c4.062 4.237 8.934 7.608 14.332 9.911 5.393 2.303 11.2 3.491 17.067 3.491s11.674-1.187 17.071-3.491c5.393-2.303 10.27-5.674 14.327-9.911s7.219-9.251 9.289-14.74c2.069-5.49 3.004-11.342 2.752-17.203l0.081 0.020z" />
<glyph unicode="&#xe908;" glyph-name="american-football" d="M244.117 715.884c-88.74-88.74-133.42-201.222-156-290.561l401.201-401.118c89.34 22.498 201.818 67.179 290.56 155.998 88.738 88.823 133.419 201.22 155.998 290.56l-401.199 401.041c-89.34-22.5-201.82-67.18-290.56-155.92zM601.297 582.004l44.702 44.58c5.999 5.446 13.867 8.375 21.973 8.178 8.102-0.197 15.817-3.503 21.547-9.234 5.734-5.731 9.041-13.448 9.237-21.551s-2.731-15.971-8.179-21.973l-44.578-44.7 22.319-22.339c5.918-5.922 9.246-13.948 9.246-22.323 0-8.371-3.328-16.397-9.246-22.319-5.922-5.918-13.948-9.246-22.319-9.246-8.375 0-16.401 3.328-22.323 9.246l-22.319 22.319-44.719-44.638 22.319-22.319c5.922-5.922 9.246-13.948 9.246-22.323 0-8.371-3.324-16.397-9.246-22.319-5.918-5.918-13.948-9.246-22.319-9.246s-16.401 3.328-22.319 9.246l-22.323 22.319-44.638-44.659 22.319-22.319c2.931-2.931 5.257-6.413 6.844-10.24 1.587-3.831 2.402-7.936 2.402-12.079 0-4.147-0.815-8.252-2.402-12.079-1.587-3.831-3.913-7.313-6.844-10.24-2.931-2.931-6.409-5.257-10.24-6.844s-7.936-2.402-12.079-2.402c-4.147 0-8.252 0.815-12.079 2.402-3.831 1.587-7.309 3.913-10.24 6.844l-22.342 22.259-44.7-44.582c-6.002-5.444-13.871-8.375-21.973-8.175-8.103 0.196-15.82 3.503-21.551 9.233s-9.038 13.449-9.234 21.551c-0.197 8.102 2.732 15.97 8.178 21.973l44.58 44.698-22.32 22.34c-5.92 5.922-9.245 13.948-9.245 22.319 0 8.375 3.325 16.401 9.245 22.323 5.92 5.918 13.949 9.246 22.32 9.246s16.4-3.328 22.32-9.246l22.32-22.323 44.721 44.642-22.319 22.319c-2.931 2.931-5.257 6.413-6.844 10.24-1.587 3.831-2.402 7.936-2.402 12.079 0 4.147 0.815 8.252 2.402 12.083 1.587 3.827 3.913 7.309 6.844 10.24s6.409 5.257 10.24 6.839c3.827 1.587 7.932 2.406 12.079 2.406 4.143 0 8.247-0.819 12.079-2.406 3.831-1.583 7.309-3.908 10.24-6.839l22.319-22.323 44.642 44.662-22.319 22.32c-5.922 5.92-9.246 13.948-9.246 22.32s3.324 16.401 9.246 22.32c5.918 5.92 13.948 9.245 22.319 9.245s16.401-3.325 22.319-9.245l22.34-22.26zM953.143 560.74c14.622 109.060 8 240.52-40 288.42s-179.358 54.6-288.418 40c-5.022-0.68-10.321-1.44-15.821-2.3l341.999-342c0.802 5.56 1.562 10.86 2.24 15.88zM70.859 335.258c-14.62-109.060-8-240.521 40-288.422 33.48-33.498 107.82-46.839 186.82-46.839 33.974 0.055 67.907 2.347 101.58 6.861 5.020 0.678 10.32 1.438 15.82 2.3l-342 341.999c-0.78-5.581-1.54-10.88-2.22-15.898z" />
<glyph unicode="&#xe909;" glyph-name="analytics" d="M912.004 704c-13.026-0.003-25.852-3.187-37.367-9.275s-21.372-14.895-28.71-25.656c-7.334-10.762-11.934-23.152-13.397-36.096-1.459-12.943 0.26-26.047 5.013-38.174l-168.337-168.338c-18.765 7.386-39.633 7.386-58.402 0l-120.337 120.338c4.762 12.129 6.494 25.239 5.039 38.19-1.459 12.95-6.054 25.349-13.393 36.117s-17.199 19.581-28.719 25.672c-11.524 6.090-24.358 9.274-37.388 9.274-13.032 0-25.867-3.184-37.388-9.274s-21.38-14.903-28.719-25.672c-7.339-10.769-11.937-23.167-13.393-36.117s0.274-26.060 5.039-38.19l-200.34-200.338c-17.109 6.711-36.008 7.326-53.519 1.741-17.51-5.581-32.564-17.024-42.63-32.401s-14.531-33.749-12.643-52.032c1.888-18.283 10.013-35.358 23.008-48.354s30.070-21.12 48.352-23.006c18.281-1.89 36.656 2.577 52.033 12.642s26.819 25.118 32.403 42.628c5.583 17.51 4.968 36.412-1.744 53.521l200.34 200.341c18.766-7.39 39.634-7.39 58.401 0l120.337-120.341c-4.762-12.13-6.494-25.242-5.039-38.191 1.459-12.949 6.054-25.348 13.393-36.117s17.199-19.58 28.719-25.673c11.524-6.089 24.358-9.271 37.389-9.271s25.865 3.183 37.389 9.271c11.52 6.093 21.38 14.903 28.719 25.673s11.938 23.168 13.393 36.117c1.455 12.949-0.277 26.061-5.039 38.191l168.337 168.339c10.957-4.303 22.724-6.137 34.47-5.37 11.742 0.767 23.172 4.116 33.476 9.808 10.3 5.692 19.217 13.587 26.116 23.122 6.903 9.535 11.614 20.474 13.798 32.039s1.792 23.469-1.148 34.864c-2.944 11.395-8.367 22.001-15.876 31.061-7.514 9.059-16.934 16.35-27.588 21.352s-22.276 7.591-34.048 7.583z" />
<glyph unicode="&#xe90a;" glyph-name="aperture" d="M501.082 701.665l-135.602 135.6c-77.648-29.55-144.767-81.501-192.84-149.26h322.801c1.579 0.003 3.123 0.474 4.437 1.354s2.338 2.131 2.944 3.593c0.602 1.462 0.759 3.069 0.448 4.62-0.307 1.551-1.071 2.975-2.189 4.093zM335.44 624h-200.18c-36.825-78.493-48.122-166.554-32.3-251.802l238.12 238.141c1.119 1.118 1.881 2.542 2.191 4.093s0.153 3.159-0.45 4.62c-0.604 1.462-1.627 2.712-2.941 3.592s-2.859 1.352-4.44 1.355zM688 624.56v200.32c-78.519 36.711-166.554 47.955-251.78 32.16l238.118-238.12c1.118-1.119 2.543-1.881 4.096-2.191 1.549-0.31 3.157-0.153 4.621 0.45 1.459 0.604 2.709 1.627 3.593 2.941 0.879 1.314 1.348 2.859 1.353 4.44zM921.041 523.802l-238.123-238.14c-1.118-1.118-1.882-2.539-2.189-4.092-0.311-1.549-0.154-3.157 0.448-4.621 0.606-1.459 1.63-2.709 2.944-3.593 1.31-0.879 2.859-1.348 4.437-1.353h200.183c36.821 78.494 48.119 166.554 32.299 251.797zM765.662 458.918l135.659 135.64c-29.47 77.763-81.459 144.973-149.321 193.040v-323.040c0.004-1.583 0.474-3.127 1.353-4.442 0.883-1.314 2.133-2.338 3.593-2.94 1.463-0.602 3.072-0.759 4.621-0.452 1.553 0.311 2.978 1.075 4.096 2.193zM443.362 276.459c2.978-2.863 6.946-4.459 11.076-4.463h119.322c2.121 0.004 4.224 0.427 6.182 1.246 1.954 0.819 3.729 2.022 5.218 3.537l98.359 99.998c2.953 2.999 4.604 7.036 4.599 11.243l-0.119 121.617c0 2.121-0.422 4.215-1.237 6.17-0.819 1.954-2.014 3.725-3.524 5.214l-99.998 98.499c-3.004 2.956-7.049 4.608-11.26 4.6l-121.681-0.12c-2.116-0.001-4.211-0.422-6.165-1.239s-3.725-2.014-5.214-3.521l-98.5-100.002c-2.956-2.999-4.609-7.044-4.6-11.26l0.12-121.557c0-2.15 0.435-4.279 1.277-6.259s2.074-3.772 3.623-5.261l102.522-98.441zM522.918 194.338l135.603-135.599c77.645 29.551 144.764 81.502 192.841 149.261h-322.803c-1.579-0.004-3.127-0.474-4.437-1.353-1.314-0.883-2.338-2.133-2.944-3.593-0.602-1.463-0.759-3.072-0.448-4.621 0.307-1.553 1.071-2.978 2.189-4.096zM336 271.441v-200.32c78.52-36.71 166.554-47.957 251.78-32.162l-238.12 238.123c-1.118 1.118-2.542 1.882-4.093 2.189-1.551 0.311-3.159 0.154-4.62-0.448-1.462-0.606-2.712-1.63-3.592-2.944-0.881-1.31-1.352-2.859-1.355-4.437zM258.339 437.082l-135.66-135.663c29.476-77.751 81.463-144.956 149.32-193.020v323.042c-0.003 1.579-0.474 3.127-1.354 4.437-0.881 1.314-2.131 2.338-3.593 2.944-1.462 0.602-3.069 0.759-4.62 0.448-1.551-0.307-2.975-1.071-4.093-2.189z" />
<glyph unicode="&#xe90b;" glyph-name="apps" d="M208 640.002c-22.152 0-43.805 6.569-62.224 18.875s-32.774 29.798-41.251 50.264c-8.477 20.465-10.695 42.985-6.374 64.71s14.988 41.682 30.652 57.346c15.663 15.663 35.62 26.33 57.346 30.652s44.245 2.103 64.71-6.374c20.465-8.477 37.957-22.832 50.264-41.251s18.875-40.072 18.875-62.224c-0.032-29.694-11.842-58.164-32.839-79.161s-49.466-32.807-79.161-32.839zM512 640.002c-22.153 0-43.806 6.569-62.225 18.875-18.415 12.307-32.772 29.798-41.249 50.264s-10.695 42.985-6.374 64.71c4.322 21.726 14.988 41.682 30.65 57.346 15.667 15.663 35.622 26.33 57.348 30.652s44.245 2.103 64.708-6.374c20.467-8.477 37.961-22.832 50.266-41.251s18.876-40.072 18.876-62.224c-0.030-29.694-11.84-58.164-32.841-79.161-20.996-20.997-49.463-32.807-79.159-32.839zM816 640.002c-22.153 0-43.806 6.569-62.225 18.875s-32.772 29.798-41.25 50.264c-8.478 20.465-10.692 42.985-6.374 64.71 4.322 21.726 14.989 41.682 30.652 57.346 15.667 15.663 35.622 26.33 57.348 30.652s44.245 2.103 64.708-6.374c20.467-8.477 37.961-22.832 50.266-41.251s18.876-40.072 18.876-62.224c-0.034-29.694-11.844-58.164-32.841-79.161s-49.463-32.807-79.159-32.839zM208 336c-22.152 0-43.805 6.571-62.224 18.876-18.418 12.309-32.774 29.798-41.251 50.266-8.477 20.463-10.695 42.982-6.374 64.708s14.988 41.685 30.652 57.348c15.663 15.663 35.62 26.33 57.346 30.651s44.245 2.103 64.71-6.374c20.465-8.477 37.957-22.831 50.264-41.251s18.875-40.073 18.875-62.225c-0.032-29.692-11.842-58.163-32.839-79.159s-49.466-32.806-79.161-32.841zM512 336c-22.153 0-43.806 6.571-62.225 18.876-18.415 12.309-32.772 29.798-41.249 50.266-8.477 20.463-10.695 42.982-6.374 64.708s14.988 41.685 30.65 57.348c15.667 15.663 35.622 26.33 57.348 30.651s44.245 2.103 64.708-6.374c20.467-8.477 37.961-22.831 50.266-41.251s18.876-40.073 18.876-62.225c-0.030-29.692-11.84-58.163-32.841-79.159-20.996-20.996-49.463-32.806-79.159-32.841zM816 336c-22.153 0-43.806 6.571-62.225 18.876-18.419 12.309-32.772 29.798-41.25 50.266-8.478 20.463-10.692 42.982-6.374 64.708 4.322 21.726 14.989 41.685 30.652 57.348 15.667 15.663 35.622 26.33 57.348 30.651s44.245 2.103 64.708-6.374c20.467-8.477 37.961-22.831 50.266-41.251s18.876-40.073 18.876-62.225c-0.034-29.692-11.844-58.163-32.841-79.159s-49.463-32.806-79.159-32.841zM208 32c-22.152 0-43.805 6.571-62.224 18.876-18.418 12.309-32.774 29.798-41.251 50.266-8.477 20.463-10.695 42.982-6.374 64.708s14.988 41.685 30.652 57.348c15.663 15.663 35.62 26.33 57.346 30.652s44.245 2.103 64.71-6.374c20.465-8.478 37.957-22.831 50.264-41.25s18.875-40.073 18.875-62.225c-0.032-29.692-11.842-58.163-32.839-79.159s-49.466-32.806-79.161-32.841zM512 32c-22.153 0-43.806 6.571-62.225 18.876-18.415 12.309-32.772 29.798-41.249 50.266-8.477 20.463-10.695 42.982-6.374 64.708s14.988 41.685 30.65 57.348c15.667 15.663 35.622 26.33 57.348 30.652s44.245 2.103 64.708-6.374c20.467-8.478 37.961-22.831 50.266-41.25s18.876-40.073 18.876-62.225c-0.030-29.692-11.84-58.163-32.841-79.159-20.996-20.996-49.463-32.806-79.159-32.841zM816 32c-22.153 0-43.806 6.571-62.225 18.876-18.419 12.309-32.772 29.798-41.25 50.266-8.478 20.463-10.692 42.982-6.374 64.708 4.322 21.726 14.989 41.685 30.652 57.348 15.667 15.663 35.622 26.33 57.348 30.652s44.245 2.103 64.708-6.374c20.467-8.478 37.961-22.831 50.266-41.25s18.876-40.073 18.876-62.225c-0.034-29.692-11.844-58.163-32.841-79.159s-49.463-32.806-79.159-32.841z" />
<glyph unicode="&#xe90c;" glyph-name="archive" d="M128 632v-488c0-29.705 11.8-58.193 32.804-79.198 21.004-21.001 49.492-32.802 79.196-32.802h544c29.705 0 58.193 11.802 79.198 32.802 21.001 21.005 32.802 49.493 32.802 79.198v488c0 2.122-0.845 4.157-2.342 5.657-1.502 1.501-3.537 2.343-5.658 2.343h-752c-2.122 0-4.157-0.843-5.657-2.343s-2.343-3.535-2.343-5.657zM661.999 328.738l-127.377-127.36c-6.003-5.995-14.14-9.365-22.622-9.365s-16.619 3.371-22.622 9.365l-127.378 127.36c-12.18 12.181-13.3 32-1.7 44.762 2.912 3.209 6.445 5.79 10.385 7.595 3.94 1.801 8.204 2.782 12.535 2.889 4.331 0.102 8.638-0.67 12.66-2.283 4.022-1.609 7.676-4.015 10.74-7.078l73.38-73.361v209.839c0 17.22 13.239 32 30.46 32.86 4.326 0.209 8.653-0.464 12.71-1.975s7.77-3.833 10.906-6.821c3.136-2.987 5.632-6.583 7.339-10.564s2.586-8.269 2.586-12.599v-210.739l73.378 73.361c3.063 3.063 6.72 5.47 10.739 7.078 4.023 1.613 8.333 2.385 12.663 2.283 4.331-0.107 8.593-1.088 12.535-2.889 3.938-1.805 7.471-4.386 10.385-7.595 11.597-12.74 10.479-32.58-1.702-44.762zM896 864h-768c-35.346 0-64-28.654-64-64v-32c0-35.346 28.654-64 64-64h768c35.345 0 64 28.654 64 64v32c0 35.346-28.655 64-64 64z" />
<glyph unicode="&#xe90d;" glyph-name="arrow-back" d="M521.941 769.941c18.743-18.745 18.743-49.137 0-67.883l-254.059-254.059 254.059-254.059c18.743-18.743 18.743-49.139 0-67.883s-49.139-18.743-67.883 0l-288 288c-18.745 18.743-18.745 49.139 0 67.883l288 288c18.743 18.745 49.139 18.745 67.883 0zM192 448c0 26.509 21.49 48 48 48h584c26.509 0 48-21.491 48-48s-21.491-48-48-48h-584c-26.51 0-48 21.491-48 48z" />
<glyph unicode="&#xe90e;" glyph-name="arrow-back-circle" d="M96 448c0-229.739 186.26-416 416-416s416 186.261 416 416c0 229.74-186.261 416-416 416s-416-186.26-416-416zM521.301 630.72c2.982-2.96 5.355-6.479 6.98-10.355 1.621-3.877 2.466-8.035 2.483-12.238s-0.794-8.368-2.389-12.257c-1.591-3.889-3.934-7.427-6.895-10.41l-104.64-105.46h267.158c8.491 0 16.627-3.371 22.63-9.374 5.999-5.999 9.37-14.14 9.37-22.626s-3.371-16.627-9.37-22.626c-6.003-6.003-14.14-9.374-22.63-9.374h-267.158l104.64-105.459c2.961-2.987 5.303-6.528 6.895-10.419s2.402-8.060 2.381-12.262c-0.017-4.207-0.862-8.367-2.492-12.241-1.626-3.878-3.998-7.398-6.985-10.359-2.987-2.957-6.528-5.303-10.419-6.895s-8.055-2.402-12.262-2.381c-4.203 0.017-8.363 0.866-12.241 2.492s-7.398 3.998-10.359 6.985l-158.778 160c-5.948 5.995-9.285 14.097-9.285 22.541s3.337 16.546 9.285 22.541l158.778 159.999c2.961 2.99 6.485 5.367 10.364 6.995s8.043 2.474 12.25 2.49c4.211 0.017 8.38-0.797 12.271-2.393 3.895-1.597 7.433-3.945 10.419-6.912z" />
<glyph unicode="&#xe90f;" glyph-name="arrow-down" d="M190.059 457.941c18.745 18.743 49.137 18.743 67.883 0l254.059-254.059 254.059 254.059c18.743 18.743 49.139 18.743 67.883 0s18.743-49.139 0-67.883l-288-288c-18.743-18.743-49.139-18.743-67.883 0l-288 288c-18.745 18.743-18.745 49.139 0 67.883zM512 808c26.509 0 48-21.49 48-48v-584c0-26.509-21.491-48-48-48s-48 21.491-48 48v584c0 26.51 21.491 48 48 48z" />
<glyph unicode="&#xe910;" glyph-name="arrow-down-circle" d="M512 32c229.739 0 416 186.261 416 416s-186.261 416-416 416c-229.74 0-416-186.26-416-416s186.26-416 416-416zM329.28 457.301c2.96 2.982 6.479 5.355 10.355 6.98 3.877 1.621 8.035 2.466 12.238 2.483s8.368-0.794 12.257-2.389c3.889-1.591 7.427-3.934 10.41-6.895l105.46-104.64v267.159c0 8.487 3.371 16.626 9.374 22.627 5.999 6.001 14.14 9.373 22.626 9.373s16.627-3.372 22.626-9.373c6.003-6.001 9.374-14.141 9.374-22.627v-267.159l105.459 104.64c6.033 5.978 14.191 9.314 22.682 9.276 8.491-0.034 16.623-3.443 22.601-9.476s9.314-14.191 9.276-22.682c-0.038-8.491-3.447-16.619-9.476-22.601l-160-158.78c-5.995-5.948-14.097-9.284-22.541-9.284s-16.546 3.337-22.541 9.284l-159.999 158.78c-2.99 2.961-5.367 6.485-6.995 10.364s-2.474 8.043-2.49 12.25c-0.017 4.211 0.797 8.38 2.393 12.271 1.597 3.895 3.945 7.433 6.912 10.419z" />
<glyph unicode="&#xe911;" glyph-name="arrow-forward" d="M502.059 769.941c18.743 18.745 49.139 18.745 67.883 0l288-288c18.743-18.743 18.743-49.139 0-67.883l-288-288c-18.743-18.743-49.139-18.743-67.883 0s-18.743 49.139 0 67.883l254.059 254.059-254.059 254.059c-18.743 18.745-18.743 49.137 0 67.883zM152 448c0 26.509 21.49 48 48 48h584c26.509 0 48-21.491 48-48s-21.491-48-48-48h-584c-26.51 0-48 21.491-48 48z" />
<glyph unicode="&#xe912;" glyph-name="arrow-forward-circle" d="M928 448c0 229.74-186.261 416-416 416s-416-186.26-416-416c0-229.739 186.26-416 416-416s416 186.261 416 416zM502.699 265.28c-2.982 2.961-5.355 6.477-6.98 10.355-1.621 3.874-2.466 8.034-2.483 12.237s0.794 8.367 2.389 12.258c1.591 3.891 3.934 7.428 6.895 10.411l104.64 105.459h-267.159c-8.487 0-16.626 3.371-22.627 9.374-6.001 5.999-9.373 14.14-9.373 22.626s3.372 16.627 9.373 22.626c6.001 6.003 14.141 9.374 22.627 9.374h267.159l-104.64 105.46c-2.961 2.986-5.303 6.526-6.895 10.418s-2.402 8.059-2.381 12.263c0.017 4.205 0.862 8.365 2.492 12.242 1.626 3.878 3.998 7.397 6.985 10.357s6.528 5.303 10.419 6.895c3.891 1.592 8.055 2.402 12.262 2.383 8.491-0.038 16.619-3.447 22.601-9.478l158.78-159.999c5.948-5.995 9.284-14.097 9.284-22.541s-3.337-16.546-9.284-22.541l-158.78-160c-2.961-2.991-6.485-5.367-10.364-6.993-3.878-1.63-8.043-2.475-12.25-2.492-4.211-0.017-8.38 0.798-12.271 2.394-3.895 1.596-7.433 3.947-10.419 6.912z" />
<glyph unicode="&#xe913;" glyph-name="arrow-redo" d="M117.58 81.741c-6.3 2.172-11.765 6.255-15.633 11.678s-5.947 11.921-5.946 18.586c0 146.197 29.36 263.117 87.3 347.537 70 102.001 180.42 156.922 328.7 163.741v160.72c0 6.266 1.839 12.394 5.291 17.623s8.363 9.331 14.127 11.795c5.76 2.464 12.117 3.183 18.283 2.066s11.87-4.018 16.401-8.345l352-336c3.127-2.987 5.615-6.579 7.317-10.556s2.577-8.26 2.577-12.582c0-4.326-0.875-8.61-2.577-12.587s-4.19-7.569-7.317-10.556l-352-336c-4.531-4.326-10.236-7.228-16.401-8.346-6.165-1.114-12.523-0.397-18.283 2.069-5.764 2.462-10.675 6.562-14.127 11.793s-5.291 11.358-5.291 17.626v159.539c-90-2.722-158-17.301-212.14-45.282-58.5-30.238-100.92-75.418-146.64-133.999-4.102-5.252-9.74-9.092-16.129-10.987-6.389-1.89-13.21-1.741-19.511 0.427v0.038z" />
<glyph unicode="&#xe914;" glyph-name="arrow-redo-circle" d="M96 448c0-229.739 186.26-416 416-416s416 186.261 416 416c0 229.74-186.261 416-416 416s-416-186.26-416-416zM288 314.658c10.9 122.901 68.28 234.182 245.739 234.182v74.64c0.034 3.229 1.003 6.38 2.79 9.068 1.792 2.688 4.326 4.796 7.296 6.068s6.242 1.653 9.425 1.096c3.179-0.557 6.131-2.028 8.491-4.233l169.101-159.482c1.626-1.532 2.923-3.383 3.81-5.436s1.344-4.267 1.344-6.502c0-2.236-0.457-4.45-1.344-6.502s-2.185-3.904-3.81-5.436l-168.841-159.543c-2.359-2.202-5.312-3.674-8.491-4.233-3.183-0.555-6.455-0.175-9.425 1.097-2.97 1.276-5.504 3.383-7.296 6.071-1.788 2.688-2.761 5.837-2.79 9.067v74.581c-114.139 0-169.019-26.94-217.159-77.363-10.98-11.298-30.14-2.637-28.84 12.86z" />
<glyph unicode="&#xe915;" glyph-name="arrow-undo" d="M896 80c-4.864 0-9.66 1.105-14.029 3.238-4.373 2.129-8.196 5.231-11.191 9.062-45.722 58.539-88.141 103.718-146.641 133.999-54.14 27.938-122.138 42.517-212.139 45.239v-159.539c-0.017-6.246-1.865-12.352-5.312-17.562s-8.341-9.293-14.084-11.755c-5.743-2.462-12.075-3.187-18.227-2.091-6.148 1.097-11.84 3.972-16.375 8.265l-352.001 336c-3.128 2.991-5.618 6.579-7.319 10.556-1.701 3.981-2.578 8.26-2.578 12.587s0.877 8.606 2.578 12.582c1.701 3.977 4.191 7.569 7.319 10.556l352.001 336.001c4.535 4.294 10.227 7.167 16.375 8.265 6.153 1.097 12.484 0.371 18.227-2.089s10.637-6.547 14.084-11.756c3.447-5.209 5.295-11.313 5.312-17.559v-160.72c148.279-6.82 258.761-61.82 328.7-163.742 57.941-84.42 87.3-201.34 87.3-347.537 0-8.486-3.371-16.627-9.374-22.63-5.999-5.999-14.14-9.37-22.626-9.37z" />
<glyph unicode="&#xe916;" glyph-name="arrow-undo-circle" d="M512 864c-229.74 0-416-186.26-416-416s186.26-416 416-416c229.739 0 416 186.261 416 416s-186.261 416-416 416zM707.341 301.798c-48.141 50.423-103.023 77.363-217.161 77.363v-74.641c-0.013-3.251-0.977-6.426-2.773-9.131-1.796-2.709-4.343-4.834-7.33-6.11-2.991-1.276-6.285-1.647-9.485-1.071-3.196 0.576-6.157 2.074-8.512 4.309l-168.92 159.484c-1.629 1.532-2.926 3.383-3.813 5.436s-1.344 4.267-1.344 6.502c0 2.236 0.457 4.45 1.344 6.502s2.185 3.904 3.813 5.436l168.839 159.542c2.355 2.237 5.316 3.737 8.512 4.312 3.2 0.575 6.498 0.202 9.485-1.074s5.538-3.399 7.334-6.107c1.792-2.708 2.756-5.882 2.769-9.131v-74.64c177.459 0 234.842-111.28 245.743-234.182 1.459-15.437-17.702-24.098-28.501-12.8z" />
<glyph unicode="&#xe917;" glyph-name="arrow-up" d="M478.059 793.941c18.743 18.745 49.139 18.745 67.883 0l288-288c18.743-18.743 18.743-49.139 0-67.883s-49.139-18.743-67.883 0l-254.059 254.059-254.059-254.059c-18.745-18.743-49.137-18.743-67.883 0s-18.745 49.139 0 67.883l288 288zM512 768c26.509 0 48-21.49 48-48v-584c0-26.509-21.491-48-48-48s-48 21.491-48 48v584c0 26.51 21.491 48 48 48z" />
<glyph unicode="&#xe918;" glyph-name="arrow-up-circle" d="M512 864c-229.74 0-416-186.26-416-416s186.26-416 416-416c229.739 0 416 186.261 416 416s-186.261 416-416 416zM694.72 438.699c-2.961-2.982-6.477-5.355-10.355-6.98-3.874-1.621-8.034-2.466-12.237-2.483s-8.367 0.794-12.258 2.389c-3.891 1.591-7.428 3.934-10.411 6.895l-105.459 104.64v-267.158c0-8.491-3.371-16.627-9.374-22.63-5.999-5.999-14.14-9.37-22.626-9.37s-16.627 3.371-22.626 9.37c-6.003 6.003-9.374 14.14-9.374 22.63v267.158l-105.46-104.64c-2.986-2.961-6.526-5.303-10.418-6.895s-8.059-2.402-12.263-2.381c-4.205 0.017-8.365 0.862-12.242 2.492-3.878 1.626-7.397 3.998-10.357 6.985s-5.303 6.528-6.895 10.419c-1.592 3.891-2.402 8.055-2.383 12.262 0.019 4.203 0.865 8.363 2.491 12.241s4 7.398 6.987 10.359l159.999 158.778c5.995 5.948 14.097 9.285 22.541 9.285s16.546-3.337 22.541-9.285l160-158.778c2.991-2.961 5.367-6.485 6.993-10.364 1.63-3.878 2.475-8.043 2.492-12.25 0.017-4.211-0.798-8.38-2.394-12.271-1.596-3.895-3.947-7.433-6.912-10.419z" />
<glyph unicode="&#xe919;" glyph-name="at-circle" d="M510.921 862.519c-229.679 0-415.999-186.22-415.999-416s186.24-416 415.999-416c229.76 0 416 186.24 416 416s-186.3 416-416 416zM760.563 456c-5.7-65.259-33.583-99.401-56-116.518-22.421-17.122-49.34-24.64-72.563-20.48-10.761 1.924-21.035 5.952-30.238 11.853-9.203 5.897-17.156 13.551-23.398 22.524-23.535-22.891-55.177-35.524-88-35.14-14.494-0.111-28.851 2.829-42.133 8.627-13.282 5.803-25.197 14.332-34.968 25.033-22.76 24.841-34 60.723-30.64 98.462 6 69.999 61.82 114.78 113.741 122.96 54.4 8.58 104.461-13.080 125.798-38.92l7.701-9.318-12.681-100.762c-2.381-28.681 6.562-46.959 24.58-50.202 4.779-0.841 16.201 0.26 28.74 9.86 13.44 10.3 30.281 32 34.202 76.941 4.698 53.082-8.704 98.38-38.502 130.98-30.98 33.8-78.178 51.68-136.461 51.68-107.999 0-203.619-88.86-213.159-197.999-4.56-52.403 11.34-101.363 44.8-137.86 32.72-35.721 78.618-55.479 129.319-55.479 38.003 0 61.222 4.1 98.961 17.557 6.997 2.496 14.699 2.108 21.406-1.079 6.711-3.183 11.883-8.905 14.374-15.898 2.492-6.997 2.103-14.699-1.079-21.41-3.183-6.707-8.905-11.878-15.902-14.37-43.639-15.543-73.357-20.8-117.76-20.8-66.559 0-127.139 26.121-170.599 73.54-44.1 48.218-65.26 112.337-59.3 180.578 5.82 66.658 36.9 129.26 87.54 176.24s115.142 72.98 181.399 72.98c74.402 0 135.859-24.16 177.741-69.86 40.179-43.82 59.021-105.5 53.082-173.719zM505.139 518.003c-29.658-4.659-63.121-31.68-66.679-72.521-2.001-22.118 3.998-42.441 16.141-55.74 4.523-4.983 10.057-8.943 16.235-11.618 6.178-2.671 12.855-3.994 19.584-3.883 40.619 0 69.461 29.879 73.502 76.122 0.119 1.395 0.35 2.778 0.678 4.139l6.4 50.901c-19.827 11.716-43.11 16.171-65.86 12.599z" />
<glyph unicode="&#xe91a;" glyph-name="attach" d="M392.136 821.949c20.5 8.565 42.496 12.975 64.713 12.975 22.221 0 44.215-4.41 64.717-12.975s39.1-21.113 54.711-36.918c15.616-15.805 27.938-34.553 36.254-55.156 8.29-20.543 12.433-42.524 12.19-64.675l-0.26-377.17-0.004-0.239c-0.465-29.436-12.484-57.51-33.463-78.161-20.983-20.655-49.242-32.23-78.682-32.23s-57.698 11.575-78.682 32.23c-20.98 20.651-33 48.725-33.465 78.161l-0.004 0.252v287.953c0 17.673 14.327 32 32.001 32s32-14.327 32-32v-287.415c0.256-12.561 5.41-24.525 14.366-33.34 9.007-8.87 21.141-13.841 33.783-13.841s24.777 4.971 33.783 13.841c8.96 8.815 14.114 20.787 14.366 33.348l0.26 377.012 0.004 0.183c0.166 13.747-2.398 27.39-7.543 40.139s-12.77 24.349-22.434 34.129c-9.66 9.78-21.167 17.545-33.852 22.844s-26.295 8.029-40.047 8.029c-13.747 0-27.358-2.729-40.042-8.029s-24.192-13.064-33.854-22.844c-9.662-9.78-17.286-21.381-22.432-34.129s-7.709-26.392-7.542-40.139l0.002-0.194v-380.064l-0.003-0.235c-0.305-21.073 3.583-41.997 11.436-61.555s19.517-37.363 34.313-52.373c14.795-15.010 32.425-26.931 51.868-35.063 19.443-8.137 40.311-12.326 61.389-12.326 21.073 0 41.941 4.19 61.385 12.326 19.443 8.132 37.073 20.053 51.87 35.063 14.793 15.010 26.458 32.815 34.313 52.373 7.851 19.558 11.742 40.482 11.435 61.555l-0.004 0.235v354.99c0 17.673 14.327 32 32 32s32-14.327 32-32v-354.538c0.397-29.474-5.056-58.735-16.043-86.093-11.012-27.43-27.371-52.395-48.119-73.446s-45.478-37.769-72.747-49.182c-27.268-11.409-56.533-17.284-86.089-17.284-29.559 0-58.825 5.875-86.093 17.284-27.268 11.413-51.995 28.13-72.745 49.182s-37.107 46.016-48.122 73.446c-10.985 27.358-16.437 56.619-16.042 86.093v379.234c-0.242 22.147 3.901 44.124 12.191 64.663 8.315 20.603 20.637 39.351 36.252 55.156s34.212 28.354 54.712 36.918z" />
<glyph unicode="&#xe91b;" glyph-name="backspace" d="M806.259 768h-492.518c-12.753-0.016-25.356-2.747-36.97-8.013s-21.974-12.945-30.39-22.527c-1.458-1.662-2.738-3.472-3.82-5.4l-178.56-267.561c-2.998-4.979-4.582-10.684-4.582-16.499s1.584-11.52 4.582-16.499l178.3-267.14c1.122-2.061 2.463-3.989 4-5.76 8.414-9.6 18.778-17.293 30.4-22.571s24.236-8.013 37-8.030h492.558c23.795 0.026 46.605 9.489 63.428 26.313s26.287 39.633 26.313 63.428v460.519c-0.026 23.792-9.489 46.603-26.313 63.427s-39.633 26.287-63.428 26.313zM696 338.001c3.042-2.957 5.466-6.49 7.134-10.389 1.664-3.9 2.539-8.094 2.569-12.335s-0.785-8.448-2.394-12.373c-1.613-3.921-3.985-7.488-6.985-10.487s-6.566-5.372-10.492-6.98c-3.925-1.604-8.132-2.419-12.373-2.385-4.241 0.030-8.431 0.905-12.335 2.573-3.9 1.668-7.428 4.092-10.385 7.138l-107.396 107.238-107.341-107.298c-6.007-6.007-14.156-9.382-22.651-9.382s-16.643 3.375-22.65 9.382c-6.007 6.003-9.382 14.153-9.382 22.647s3.375 16.644 9.382 22.652l107.3 107.341-107.38 107.378c-6.004 6.018-9.373 14.174-9.363 22.675s3.396 16.65 9.414 22.655c6.018 6.004 14.174 9.373 22.675 9.363s16.648-3.395 22.656-9.414l107.379-107.401 107.341 107.401c6.003 6.005 14.148 9.378 22.639 9.378s16.636-3.373 22.639-9.378c6.007-6.004 9.378-14.148 9.378-22.64s-3.371-16.635-9.378-22.64l-107.401-107.378 107.401-107.341z" />
<glyph unicode="&#xe91c;" glyph-name="bag" d="M909.299 621.2c-5.931 5.974-12.988 10.712-20.766 13.939-7.774 3.227-16.115 4.879-24.533 4.861h-128v32c0 59.409-23.599 116.384-65.609 158.392s-98.982 65.608-158.391 65.608c-59.409 0-116.384-23.6-158.392-65.608s-65.608-98.983-65.608-158.392v-32h-128c-16.974 0-33.253-6.743-45.255-18.745s-18.745-28.281-18.745-45.255v-432c0-77.999 66-144 144-144h544c37.73-0.013 73.967 14.741 100.962 41.101 13.581 12.958 24.401 28.535 31.795 45.794 7.398 17.254 11.221 35.831 11.243 54.605v434.5c0.026 8.396-1.613 16.714-4.821 24.473-3.213 7.759-7.927 14.804-13.879 20.727zM352 672c0 42.435 16.857 83.131 46.863 113.137s70.701 46.863 113.137 46.863c42.436 0 83.132-16.857 113.139-46.863 30.003-30.006 46.861-70.703 46.861-113.137v-32h-320v32z" />
<glyph unicode="&#xe91d;" glyph-name="bag-add" d="M909.321 621.2c-5.939 5.973-13.001 10.71-20.779 13.937s-16.119 4.88-24.542 4.863h-128v32c0 59.409-23.599 116.384-65.609 158.392s-98.982 65.608-158.391 65.608c-59.409 0-116.384-23.6-158.392-65.608s-65.608-98.983-65.608-158.392v-32h-128c-16.974 0-33.253-6.743-45.255-18.745s-18.745-28.281-18.745-45.255v-432c0-77.999 66-144 144-144h544c37.73-0.013 73.967 14.741 100.962 41.101 13.581 12.958 24.401 28.535 31.795 45.794 7.398 17.254 11.221 35.831 11.243 54.605v434.5c0.026 8.394-1.613 16.711-4.817 24.468-3.209 7.758-7.919 14.804-13.862 20.732zM640 288h-96v-96c0-8.486-3.371-16.627-9.374-22.626-5.999-6.003-14.14-9.374-22.626-9.374s-16.627 3.371-22.626 9.374c-6.003 5.999-9.374 14.14-9.374 22.626v96h-96c-8.487 0-16.626 3.371-22.627 9.374-6.001 5.999-9.373 14.14-9.373 22.626s3.372 16.627 9.373 22.626c6.001 6.003 14.141 9.374 22.627 9.374h96v96c0 8.486 3.371 16.627 9.374 22.626 5.999 6.003 14.14 9.374 22.626 9.374s16.627-3.371 22.626-9.374c6.003-5.999 9.374-14.14 9.374-22.626v-96h96c8.486 0 16.627-3.371 22.626-9.374 6.003-5.999 9.374-14.14 9.374-22.626s-3.371-16.627-9.374-22.626c-5.999-6.003-14.14-9.374-22.626-9.374zM672 640h-320v32c0 42.435 16.857 83.131 46.863 113.137s70.701 46.863 113.137 46.863c42.436 0 83.132-16.857 113.139-46.863 30.003-30.006 46.861-70.703 46.861-113.137v-32z" />
<glyph unicode="&#xe91e;" glyph-name="bag-check" d="M909.299 621.2c-5.931 5.974-12.988 10.712-20.766 13.939-7.774 3.227-16.115 4.879-24.533 4.861h-128v32c0 59.409-23.599 116.384-65.609 158.392s-98.982 65.608-158.391 65.608c-59.409 0-116.384-23.6-158.392-65.608s-65.608-98.983-65.608-158.392v-32h-128c-16.974 0-33.253-6.743-45.255-18.745s-18.745-28.281-18.745-45.255v-432c0-77.999 66-144 144-144h544c37.73-0.013 73.967 14.741 100.962 41.101 13.581 12.958 24.401 28.535 31.795 45.794 7.398 17.254 11.221 35.831 11.243 54.605v434.5c0.026 8.396-1.613 16.714-4.821 24.473-3.213 7.759-7.927 14.804-13.879 20.727zM664.981 411.998l-179.2-224c-2.944-3.674-6.66-6.656-10.889-8.73-4.228-2.078-8.862-3.191-13.572-3.268h-0.521c-4.621 0-9.19 1.003-13.389 2.935s-7.927 4.753-10.931 8.265l-76.8 89.762c-2.732 3.191-4.807 6.891-6.109 10.889-1.301 3.994-1.803 8.209-1.476 12.399s1.476 8.273 3.381 12.019c1.905 3.746 4.53 7.078 7.724 9.809 3.194 2.735 6.894 4.809 10.89 6.11s8.209 1.805 12.399 1.476c4.189-0.324 8.274-1.476 12.020-3.379 3.746-1.907 7.080-4.531 9.811-7.727l51.678-60.378 155.021 193.822c5.308 6.63 13.026 10.88 21.466 11.819s16.905-1.515 23.535-6.822c6.63-5.303 10.884-13.022 11.819-21.461 0.939-8.439-1.515-16.905-6.818-23.539h-0.038zM672 640h-320v32c0 42.435 16.857 83.131 46.863 113.137s70.701 46.863 113.137 46.863c42.436 0 83.132-16.857 113.139-46.863 30.003-30.006 46.861-70.703 46.861-113.137v-32z" />
<glyph unicode="&#xe91f;" glyph-name="bag-handle" d="M909.299 621.2c-5.931 5.974-12.988 10.712-20.766 13.939-7.774 3.227-16.115 4.879-24.533 4.861h-128v32c0 59.409-23.599 116.384-65.609 158.392s-98.982 65.608-158.391 65.608c-59.409 0-116.384-23.6-158.392-65.608s-65.608-98.983-65.608-158.392v-32h-128c-16.974 0-33.253-6.743-45.255-18.745s-18.745-28.281-18.745-45.255v-432c0-77.999 66-144 144-144h544c37.73-0.013 73.967 14.741 100.962 41.101 13.581 12.958 24.401 28.535 31.795 45.794 7.398 17.254 11.221 35.831 11.243 54.605v434.5c0.026 8.396-1.613 16.714-4.821 24.473-3.213 7.759-7.927 14.804-13.879 20.727zM352 672c0 42.435 16.857 83.131 46.863 113.137s70.701 46.863 113.137 46.863c42.436 0 83.132-16.857 113.139-46.863 30.003-30.006 46.861-70.703 46.861-113.137v-32h-320v32zM736 480c0-59.409-23.599-116.382-65.609-158.391s-98.982-65.609-158.391-65.609c-59.409 0-116.384 23.599-158.392 65.609s-65.608 98.982-65.608 158.391v32c0 8.486 3.372 16.627 9.373 22.627s14.141 9.373 22.627 9.373c8.487 0 16.626-3.372 22.627-9.373s9.373-14.141 9.373-22.627v-32c0-42.436 16.857-83.132 46.863-113.139 30.005-30.003 70.701-46.861 113.137-46.861s83.132 16.858 113.139 46.861c30.003 30.007 46.861 70.703 46.861 113.139v32c0 8.486 3.371 16.627 9.374 22.627 5.999 6.001 14.14 9.373 22.626 9.373s16.627-3.372 22.626-9.373c6.003-6 9.374-14.141 9.374-22.627v-32z" />
<glyph unicode="&#xe920;" glyph-name="bag-remove" d="M909.321 621.2c-5.939 5.973-13.001 10.71-20.779 13.937s-16.119 4.88-24.542 4.863h-128v32c0 59.409-23.599 116.384-65.609 158.392s-98.982 65.608-158.391 65.608c-59.409 0-116.384-23.6-158.392-65.608s-65.608-98.983-65.608-158.392v-32h-128c-16.974 0-33.253-6.743-45.255-18.745s-18.745-28.281-18.745-45.255v-432c0-77.999 66-144 144-144h544c37.73-0.013 73.967 14.741 100.962 41.101 13.581 12.958 24.401 28.535 31.795 45.794 7.398 17.254 11.221 35.831 11.243 54.605v434.5c0.026 8.394-1.613 16.711-4.817 24.468-3.209 7.758-7.919 14.804-13.862 20.732zM640 288h-256c-8.487 0-16.626 3.371-22.627 9.374-6.001 5.999-9.373 14.14-9.373 22.626s3.372 16.627 9.373 22.626c6.001 6.003 14.141 9.374 22.627 9.374h256c8.486 0 16.627-3.371 22.626-9.374 6.003-5.999 9.374-14.14 9.374-22.626s-3.371-16.627-9.374-22.626c-5.999-6.003-14.14-9.374-22.626-9.374zM672 640h-320v32c0 42.435 16.857 83.131 46.863 113.137s70.701 46.863 113.137 46.863c42.436 0 83.132-16.857 113.139-46.863 30.003-30.006 46.861-70.703 46.861-113.137v-32z" />
<glyph unicode="&#xe921;" glyph-name="ban" d="M512 800c-194.404 0-352-157.596-352-352 0-194.402 157.596-352 352-352 194.402 0 352 157.598 352 352 0 194.404-157.598 352-352 352zM64 448c0 247.424 200.576 448 448 448s448-200.576 448-448c0-247.424-200.576-448-448-448s-448 200.576-448 448zM760.9 131.217l-565.679 565.679 67.882 67.882 565.679-565.679-67.883-67.883z" />
<glyph unicode="&#xe922;" glyph-name="bandage" d="M551.599 646.002c-2.974 2.972-6.502 5.33-10.385 6.939s-8.043 2.436-12.245 2.436c-4.203 0-8.367-0.828-12.25-2.436s-7.411-3.967-10.381-6.939l-186.68-186.679c-2.972-2.974-5.33-6.502-6.939-10.385s-2.436-8.043-2.436-12.245c0-4.203 0.828-8.367 2.436-12.25s3.967-7.411 6.939-10.381l158.401-158.4c2.97-2.974 6.498-5.329 10.381-6.938s8.047-2.436 12.25-2.436c4.203 0 8.363 0.828 12.245 2.436s7.411 3.964 10.385 6.938l186.679 186.679c2.97 2.974 5.329 6.498 6.938 10.381 1.609 3.887 2.436 8.047 2.436 12.25s-0.828 8.363-2.436 12.25c-1.609 3.883-3.968 7.407-6.938 10.381l-158.4 158.399zM438.618 425.382c-4.476-4.476-10.176-7.526-16.384-8.764s-12.643-0.602-18.492 1.818c-5.848 2.423-10.847 6.524-14.365 11.785-3.517 5.265-5.394 11.452-5.394 17.783 0 6.327 1.877 12.514 5.394 17.779 3.517 5.261 8.516 9.365 14.365 11.785 5.849 2.423 12.284 3.055 18.492 1.818s11.908-4.284 16.384-8.764c5.999-5.999 9.365-14.135 9.365-22.618 0-8.486-3.366-16.623-9.365-22.622zM534.618 329.382c-4.476-4.476-10.176-7.526-16.384-8.764s-12.642-0.602-18.492 1.818c-5.85 2.423-10.846 6.524-14.366 11.785-3.516 5.265-5.393 11.452-5.393 17.783 0 6.327 1.877 12.514 5.393 17.779 3.52 5.261 8.516 9.365 14.366 11.785 5.85 2.423 12.284 3.055 18.492 1.818s11.908-4.284 16.384-8.764c5.999-5.999 9.365-14.135 9.365-22.618 0-8.486-3.366-16.619-9.365-22.622zM534.618 521.382c-4.476-4.476-10.176-7.526-16.384-8.764s-12.642-0.602-18.492 1.818c-5.85 2.423-10.846 6.524-14.366 11.785-3.516 5.265-5.393 11.452-5.393 17.782s1.877 12.518 5.393 17.78c3.52 5.263 8.516 9.364 14.366 11.786s12.284 3.054 18.492 1.817c6.208-1.236 11.908-4.286 16.384-8.763 5.999-6.001 9.365-14.137 9.365-22.62s-3.366-16.621-9.365-22.62zM630.618 425.382c-4.476-4.476-10.176-7.526-16.384-8.764s-12.642-0.602-18.492 1.818c-5.85 2.423-10.846 6.524-14.366 11.785-3.516 5.265-5.393 11.452-5.393 17.783 0 6.327 1.877 12.514 5.393 17.779 3.52 5.261 8.516 9.365 14.366 11.785 5.85 2.423 12.284 3.055 18.492 1.818s11.908-4.284 16.384-8.764c5.999-5.999 9.365-14.135 9.365-22.618 0-8.486-3.366-16.623-9.365-22.622zM931.217 867.223c-39.121 38.927-92.062 60.78-147.251 60.78-55.185 0-108.13-21.853-147.247-60.78l-139.52-139.78c-1.284-1.289-2.086-2.976-2.283-4.784-0.192-1.807 0.235-3.627 1.212-5.159s2.449-2.685 4.169-3.27c1.724-0.585 3.593-0.566 5.299 0.053 7.454 2.995 15.36 4.712 23.381 5.080 12.612 0.032 25.105-2.436 36.757-7.263 11.648-4.827 22.229-11.916 31.121-20.857l158.383-158.379c8.939-8.896 16.030-19.473 20.855-31.125s7.296-24.145 7.262-36.757c-0.363-8.021-2.082-15.927-5.077-23.377-0.619-1.711-0.64-3.58-0.055-5.299 0.585-1.724 1.741-3.191 3.273-4.169 1.532-0.981 3.349-1.408 5.158-1.212 1.805 0.192 3.494 0.998 4.783 2.278l139.78 139.52c38.925 39.12 60.779 92.062 60.779 147.25s-21.854 108.13-60.779 147.25zM508.681 186.342c-12.599-0.026-25.079 2.436-36.727 7.241s-22.234 11.861-31.155 20.762l-158.378 158.46c-7.778 7.77-14.159 16.819-18.86 26.761-9.18 19.396-2.78 49.997 4.96 73.796 0.512 1.702 0.443 3.529-0.196 5.188-0.64 1.655-1.813 3.055-3.336 3.972s-3.307 1.301-5.072 1.092c-1.765-0.209-3.41-1.003-4.675-2.253l-154.46-154.078c-39.053-39.053-60.993-92.019-60.993-147.251 0-55.228 21.94-108.194 60.993-147.247 39.053-39.057 92.020-60.996 147.25-60.996s108.197 21.939 147.25 60.996l145.499 145.758c1.289 1.289 2.095 2.982 2.291 4.791 0.196 1.813-0.235 3.635-1.216 5.171-0.981 1.532-2.458 2.688-4.186 3.268-1.724 0.58-3.597 0.559-5.308-0.073-8.363-3.157-16.802-5.359-23.68-5.359z" />
<glyph unicode="&#xe923;" glyph-name="barbell" d="M933.999 607.997c-9.843 0.32-19.618-1.794-28.45-6.155-8.836-4.361-16.457-10.834-22.187-18.845-0.491-0.697-1.186-1.221-1.988-1.496-0.806-0.275-1.677-0.286-2.487-0.032-0.815 0.254-1.523 0.76-2.027 1.445s-0.777 1.512-0.781 2.362v73.3c0 41.5-32.678 76.42-74.159 77.4-10.138 0.256-20.228-1.519-29.67-5.223s-18.048-9.259-25.31-16.34c-7.262-7.081-13.030-15.543-16.973-24.889-3.938-9.346-5.969-19.386-5.965-29.528v-164.001c0-1.058-0.422-2.078-1.173-2.829-0.751-0.747-1.766-1.169-2.829-1.169h-416c-1.061 0-2.078 0.422-2.828 1.169-0.75 0.751-1.172 1.771-1.172 2.829v162.581c0 41.5-32.68 76.42-74.16 77.4-10.133 0.245-20.212-1.539-29.645-5.246s-18.029-9.265-25.282-16.345c-7.253-7.080-13.017-15.539-16.952-24.879s-5.962-19.374-5.962-29.509v-74.76c-0.002-0.85-0.275-1.678-0.779-2.362s-1.214-1.191-2.025-1.445c-0.812-0.254-1.683-0.243-2.488 0.032s-1.501 0.799-1.987 1.496c-5.737 8.030-13.368 14.518-22.217 18.886s-18.64 6.482-28.503 6.153c-32.6-1.020-58-28.62-58-61.24v-197.441c0-32.619 25.48-60.22 58-61.239 9.846-0.32 19.619 1.796 28.452 6.157s16.454 10.833 22.188 18.842c0.475 0.738 1.179 1.301 2.004 1.6 0.825 0.294 1.725 0.316 2.561 0.051s1.563-0.794 2.068-1.51c0.505-0.721 0.76-1.583 0.726-2.458v-73.34c0-41.421 32.68-76.42 74.16-77.423 10.135-0.243 20.215 1.54 29.649 5.248 9.434 3.712 18.031 9.271 25.284 16.354 7.253 7.078 13.017 15.539 16.951 24.883s5.959 19.379 5.956 29.517v163.998c0 1.062 0.422 2.078 1.172 2.829s1.768 1.173 2.828 1.173h416c1.062 0 2.078-0.422 2.829-1.173s1.173-1.766 1.173-2.829v-162.577c0-41.502 32.678-76.42 74.159-77.402 10.133-0.247 20.211 1.54 29.645 5.248s18.027 9.263 25.28 16.346c7.253 7.078 13.018 15.535 16.951 24.879 3.934 9.34 5.965 19.371 5.961 29.508v74.761c0.004 0.849 0.277 1.677 0.781 2.359 0.503 0.687 1.216 1.195 2.027 1.446 0.811 0.256 1.681 0.243 2.487-0.030 0.802-0.277 1.502-0.802 1.988-1.498 5.734-8.030 13.367-14.519 22.217-18.884 8.849-4.369 18.641-6.485 28.501-6.157 32.602 1.020 58.001 28.621 58.001 61.239v197.482c0 32.62-25.481 60.22-58.001 61.28z" />
<glyph unicode="&#xe924;" glyph-name="bar-chart" d="M960-32h-864c-16.974 0-33.253 6.741-45.255 18.743s-18.745 28.284-18.745 45.257v864c0 8.487 3.371 16.626 9.373 22.627s14.141 9.373 22.627 9.373c8.487 0 16.626-3.371 22.627-9.373s9.373-14.141 9.373-22.627v-864h864c8.486 0 16.627-3.371 22.626-9.374 6.003-5.999 9.374-14.14 9.374-22.626s-3.371-16.627-9.374-22.626c-5.999-6.003-14.14-9.374-22.626-9.374zM312 96h-80c-19.095 0-37.409 7.586-50.912 21.090-13.503 13.5-21.088 31.812-21.088 50.91v304c0 19.098 7.586 37.41 21.088 50.91 13.503 13.504 31.816 21.090 50.912 21.090h80c19.095 0 37.409-7.586 50.912-21.090 13.503-13.5 21.088-31.812 21.088-50.91v-304c0-19.098-7.586-37.41-21.088-50.91-13.503-13.504-31.816-21.090-50.912-21.090zM600 96h-80c-19.098 0-37.41 7.586-50.91 21.090-13.504 13.5-21.090 31.812-21.090 50.91v400c0 19.095 7.586 37.409 21.090 50.912 13.5 13.503 31.812 21.088 50.91 21.088h80c19.098 0 37.41-7.586 50.91-21.088 13.504-13.503 21.090-31.816 21.090-50.912v-400c0-19.098-7.586-37.41-21.090-50.91-13.5-13.504-31.812-21.090-50.91-21.090zM887.275 96h-80c-19.093 0-37.406 7.586-50.91 21.090-13.504 13.5-21.090 31.812-21.090 50.91v528c0 19.095 7.586 37.409 21.090 50.912s31.817 21.088 50.91 21.088h80c19.098 0 37.41-7.586 50.914-21.088 13.5-13.503 21.086-31.816 21.086-50.912v-528c0-19.098-7.586-37.41-21.086-50.91-13.504-13.504-31.817-21.090-50.914-21.090z" />
<glyph unicode="&#xe925;" glyph-name="barcode" d="M838.259 768h-0.26l-70.097-0.66-512.222 0.66-73.48-0.66c-48.34-0.1-86.2-39.48-86.2-89.74v-460.542c0-50.3 38-89.719 86.4-89.719h0.3l73.42 0.661 512.179-0.661 70.14 0.661c23.765 0.068 46.532 9.553 63.317 26.372s26.223 39.603 26.244 63.369v460.519c-0.026 23.792-9.489 46.603-26.313 63.427s-39.633 26.287-63.428 26.313zM288 320c0-8.486-3.372-16.627-9.373-22.626-6.001-6.003-14.141-9.374-22.627-9.374s-16.626 3.371-22.627 9.374c-6.001 5.999-9.373 14.14-9.373 22.626v256c0 8.487 3.372 16.626 9.373 22.627s14.141 9.373 22.627 9.373c8.487 0 16.626-3.372 22.627-9.373s9.373-14.141 9.373-22.627v-256zM416 256c0-8.486-3.372-16.627-9.373-22.626-6.001-6.003-14.141-9.374-22.627-9.374s-16.626 3.371-22.627 9.374c-6.001 5.999-9.373 14.14-9.373 22.626v384c0 8.487 3.372 16.626 9.373 22.627s14.141 9.373 22.627 9.373c8.487 0 16.626-3.372 22.627-9.373s9.373-14.141 9.373-22.627v-384zM544 288c0-8.486-3.371-16.627-9.374-22.626-5.999-6.003-14.14-9.374-22.626-9.374s-16.627 3.371-22.626 9.374c-6.003 5.999-9.374 14.14-9.374 22.626v320c0 8.487 3.371 16.626 9.374 22.627 5.999 6.001 14.14 9.373 22.626 9.373s16.627-3.372 22.626-9.373c6.003-6.001 9.374-14.141 9.374-22.627v-320zM672 256c0-8.486-3.371-16.627-9.374-22.626-5.999-6.003-14.14-9.374-22.626-9.374s-16.627 3.371-22.626 9.374c-6.003 5.999-9.374 14.14-9.374 22.626v384c0 8.487 3.371 16.626 9.374 22.627 5.999 6.001 14.14 9.373 22.626 9.373s16.627-3.372 22.626-9.373c6.003-6.001 9.374-14.141 9.374-22.627v-384zM800 320c0-8.486-3.371-16.627-9.374-22.626-5.999-6.003-14.14-9.374-22.626-9.374s-16.627 3.371-22.626 9.374c-6.003 5.999-9.374 14.14-9.374 22.626v256c0 8.487 3.371 16.626 9.374 22.627 5.999 6.001 14.14 9.373 22.626 9.373s16.627-3.372 22.626-9.373c6.003-6.001 9.374-14.141 9.374-22.627v-256z" />
<glyph unicode="&#xe926;" glyph-name="baseball" d="M888 368.661l-0.939 52.143c-26.423 0.619-52.727 3.785-78.541 9.459l-10.001-34.701c-0.951-3.61-2.62-6.993-4.902-9.95-2.278-2.957-5.129-5.427-8.38-7.266s-6.835-3.012-10.547-3.443c-3.708-0.431-7.467-0.119-11.055 0.922-3.584 1.045-6.925 2.795-9.826 5.146s-5.303 5.261-7.061 8.559c-1.758 3.294-2.842 6.908-3.183 10.624-0.341 3.721 0.064 7.471 1.195 11.029l10.001 34.761c-25.101 9.203-49.246 20.826-72.102 34.701l-20.877-29.542c-4.288-6.063-10.807-10.18-18.125-11.439-7.322-1.259-14.839 0.444-20.907 4.732-6.067 4.284-10.18 10.803-11.439 18.125-1.259 7.317 0.444 14.839 4.727 20.902l20.821 29.461c-22.025 17.869-42.129 37.976-59.998 60l-29.44-20.88c-3.004-2.122-6.396-3.632-9.984-4.443s-7.3-0.908-10.923-0.285c-3.622 0.623-7.091 1.954-10.202 3.916s-5.803 4.518-7.923 7.522c-2.121 3.003-3.631 6.395-4.442 9.982-0.815 3.587-0.909 7.298-0.286 10.923 1.259 7.319 5.372 13.839 11.439 18.125l29.478 20.84c-13.909 22.85-25.549 47.005-34.761 72.12l-34.641-10c-3.529-1.025-7.228-1.345-10.884-0.942-3.652 0.404-7.194 1.524-10.415 3.295s-6.063 4.161-8.363 7.031c-2.3 2.87-4.011 6.164-5.035 9.696-1.028 3.532-1.348 7.23-0.943 10.885 0.401 3.655 1.523 7.194 3.294 10.417s4.16 6.064 7.031 8.363c2.871 2.299 6.165 4.010 9.694 5.036l34.603 10c-4.689 21.455-7.65 43.252-8.862 65.18-0.226 4-0.384 8-0.478 12l-36.442 0.66c-7.334 0.137-14.323 3.146-19.465 8.383-5.138 5.236-8.017 12.281-8.015 19.617-73.733-16.343-141.626-52.45-196.398-104.448s-94.354-117.926-114.502-190.711c8.020-0.5 15.557-4 21.115-9.803s8.73-13.482 8.885-21.516l0.88-48.862c3.16-0.098 6.32-0.218 9.46-0.401 21.929-1.207 43.724-4.173 65.18-8.858l10 34.598c2.071 7.134 6.891 13.15 13.399 16.725 6.508 3.58 14.17 4.429 21.302 2.355 7.131-2.069 13.148-6.891 16.727-13.397s4.425-14.17 2.353-21.303l-10-34.641c25.074-9.212 49.188-20.855 72-34.756l20.7 29.478c4.286 6.067 10.806 10.18 18.125 11.439s14.839-0.444 20.905-4.727c6.065-4.288 10.18-10.807 11.439-18.125 1.258-7.322-0.442-14.839-4.728-20.907l-20.78-29.461c11.010-8.934 21.551-18.432 31.58-28.459 10.030-10.022 19.527-20.565 28.462-31.582l29.457 20.821c6.071 4.288 13.598 5.986 20.919 4.723 7.326-1.263 13.845-5.38 18.133-11.452 4.284-6.071 5.982-13.598 4.723-20.919-1.263-7.322-5.385-13.845-11.456-18.133l-29.517-20.86c13.879-22.848 25.515-46.985 34.739-72.077l34.761 10.099c7.13 2.069 14.793 1.225 21.299-2.355 6.507-3.575 11.328-9.596 13.397-16.725 2.074-7.134 1.229-14.793-2.351-21.303-3.58-6.507-9.596-11.324-16.725-13.397l-34.701-10.001c5.521-25.169 8.67-50.799 9.399-76.557l36.54-0.661c8.482-0.154 16.559-3.669 22.451-9.775s9.118-14.302 8.969-22.784c-0.013-0.798-0.068-1.591-0.158-2.381 73.822 17.579 141.427 55.014 195.503 108.258 54.076 53.239 92.553 120.26 111.275 193.801-6.908 0.58-13.355 3.699-18.095 8.755-4.74 5.060-7.437 11.695-7.565 18.624zM602.982 847.603c-0.107-7.353-3.098-14.37-8.333-19.534s-12.292-8.062-19.648-8.066h-0.499l-33.621 0.6c0.102-2.62 0.201-5.24 0.341-7.86 0.986-17.686 3.285-35.275 6.882-52.62l32.58 9.48c6.899 1.438 14.089 0.222 20.13-3.407s10.492-9.403 12.463-16.169c1.971-6.767 1.323-14.028-1.826-20.335s-8.555-11.194-15.151-13.688l-32.538-9.46c7.275-19.194 16.192-37.723 26.658-55.38l27.682 19.56c3.004 2.122 6.396 3.632 9.98 4.443 3.588 0.811 7.3 0.908 10.923 0.285 3.627-0.623 7.091-1.954 10.202-3.917s5.803-4.518 7.927-7.522c2.121-3.003 3.631-6.395 4.442-9.982s0.909-7.299 0.286-10.923c-0.623-3.625-1.954-7.090-3.917-10.2s-4.518-5.803-7.522-7.925l-27.721-19.58c7.002-8.44 14.413-16.567 22.238-24.38 7.804-7.82 16-15.2 24.401-22.2l19.563 27.68c2.133 3.003 4.838 5.557 7.957 7.515 3.123 1.958 6.596 3.282 10.231 3.897 3.631 0.615 7.347 0.508 10.94-0.314s6.985-2.344 9.988-4.477c3.004-2.134 5.559-4.839 7.518-7.959s3.281-6.597 3.895-10.23c0.614-3.633 0.508-7.351-0.316-10.942-0.819-3.592-2.342-6.986-4.476-9.989l-19.52-27.599c17.655-10.458 36.177-19.379 55.36-26.662l9.519 32.563c2.074 7.13 6.891 13.146 13.397 16.725 6.511 3.578 14.17 4.425 21.303 2.353 7.13-2.071 13.15-6.891 16.725-13.399 3.58-6.508 4.425-14.17 2.355-21.3l-9.459-32.521c20.378-4.241 41.092-6.686 61.897-7.3l-0.32 18.001c-0.128 7.42 2.697 14.592 7.855 19.934 5.158 5.338 12.224 8.414 19.648 8.546h0.499c1.737-0.013 3.473-0.183 5.18-0.503-15.249 79.299-53.248 152.443-109.359 210.512-56.115 58.068-127.915 98.551-206.639 116.509-0.124-0.8-0.081-1.52-0.102-2.26zM416.877 44.902c0.152 8.482 3.668 16.559 9.774 22.451 6.104 5.892 14.3 9.118 22.787 8.969l33.519-0.58c-0.717 20.134-3.14 40.175-7.241 59.9l-32.521-9.438c-3.533-1.028-7.232-1.348-10.889-0.943s-7.196 1.523-10.419 3.298c-3.223 1.771-6.065 4.164-8.365 7.036-2.299 2.867-4.011 6.165-5.036 9.698s-1.345 7.232-0.941 10.889c0.404 3.657 1.525 7.198 3.297 10.419 1.773 3.226 4.163 6.067 7.034 8.367s6.167 4.011 9.698 5.035l32.422 9.399c-7.275 19.187-16.196 37.709-26.662 55.36l-27.598-19.52c-3.004-2.121-6.395-3.631-9.982-4.442s-7.298-0.909-10.923-0.286c-3.624 0.623-7.090 1.954-10.2 3.917s-5.803 4.518-7.925 7.522c-2.122 3.004-3.632 6.396-4.443 9.98-0.811 3.588-0.908 7.3-0.285 10.923 0.623 3.627 1.954 7.091 3.916 10.202s4.519 5.803 7.522 7.923l27.68 19.563c-7 8.439-14.38 16.597-22.2 24.401-7.82 7.799-16 15.236-24.38 22.238l-19.58-27.721c-4.286-6.063-10.806-10.18-18.125-11.439s-14.839 0.444-20.905 4.732c-6.065 4.284-10.18 10.803-11.438 18.125-1.259 7.317 0.442 14.839 4.728 20.902l19.56 27.682c-17.653 10.475-36.183 19.392-55.38 26.658l-9.38-32.538c-2.071-7.134-6.892-13.154-13.401-16.734s-14.174-4.429-21.309-2.359c-7.134 2.074-13.154 6.895-16.734 13.402-3.58 6.511-4.428 14.174-2.356 21.312l9.46 32.576c-17.344 3.605-34.933 5.905-52.62 6.882-1.78 0.098-3.58 0.158-5.36 0.239l0.32-21.18c0.15-8.482-3.076-16.678-8.968-22.784s-13.968-9.621-22.452-9.775h-0.58c-2.659 0.013-5.306 0.354-7.88 1.020 15.072-79.339 52.911-152.572 108.899-210.769s127.706-98.842 206.401-116.971c-0.402 2.129-0.583 4.292-0.54 6.46z" />
<glyph unicode="&#xe927;" glyph-name="basket" d="M848.222 576h-128.222l-182.4 243.2c-2.978 3.974-6.844 7.2-11.29 9.422-4.442 2.222-9.34 3.378-14.31 3.378-4.966 0-9.865-1.157-14.31-3.378-4.442-2.222-8.307-5.447-11.29-9.422l-182.399-243.2h-128.22c-17.248 0.026-33.804-6.789-46.034-18.952s-19.137-28.681-19.206-45.927c-0.038-6.097 0.846-12.169 2.62-18.001l92.54-326.281c6.017-21.265 18.815-39.983 36.447-53.308s39.133-20.527 61.233-20.51h417.242c22.101 0.068 43.588 7.283 61.252 20.57 17.66 13.286 30.554 31.932 36.745 53.15l92.663 326.72c0.427 1.545 0.734 3.123 0.917 4.719l1.062 9.86c0.119 1.028 0.179 2.065 0.179 3.098-0.077 17.242-6.98 33.752-19.209 45.91-12.224 12.158-28.77 18.973-46.012 18.952zM512 746.66l128-170.66h-255.999l127.999 170.66zM512 256.661c-14.895 0.068-29.44 4.553-41.792 12.881s-21.961 20.13-27.61 33.911c-5.653 13.786-7.095 28.932-4.143 43.537 2.948 14.601 10.159 28.002 20.719 38.511 10.556 10.509 23.991 17.655 38.609 20.535s29.76 1.365 43.516-4.352c13.756-5.717 25.51-15.381 33.779-27.772 8.269-12.395 12.681-26.957 12.685-41.852-0.115-20.019-8.145-39.181-22.34-53.295s-33.404-22.033-53.423-22.029v-0.077z" />
<glyph unicode="&#xe928;" glyph-name="basketball" d="M512 493.257l68.898 68.9c-64.747 75.24-100.322 171.234-100.237 270.5 0 10 0.38 20.1 1.079 30-88.643-6.246-172.926-40.836-240.401-98.66l270.66-270.74zM626.278 607.532l156.382 156.46c-66.496 57-149.355 91.45-236.659 98.4-0.819-9.8-1.28-19.72-1.28-29.74-0.085-82.287 28.787-161.981 81.557-225.12zM671.539 562.276c63.134-52.789 142.827-81.683 225.122-81.619 9.997 0 19.998 0.461 29.739 1.28-6.938 87.327-41.387 170.206-98.398 236.719l-156.463-156.38zM352.46 333.726c-63.13 52.796-142.825 81.69-225.12 81.621-10.027 0-19.94-0.427-29.74-1.28 6.938-87.33 41.389-170.206 98.4-236.719l156.46 156.378zM512 402.735l-68.898-68.902c64.747-75.238 100.322-171.234 100.237-270.498 0-10.001-0.38-20.1-1.079-29.999 88.644 6.242 172.928 40.832 240.401 98.658l-270.66 270.741zM896.661 416.653c-99.268-0.085-195.26 35.49-270.502 100.241l-68.898-68.902 270.741-270.66c57.865 67.46 92.497 151.744 98.778 240.401-10.018-0.7-20.041-1.079-30.118-1.079zM466.739 447.996l-270.739 270.661c-57.871-67.457-92.504-151.743-98.78-240.401 10 0.7 20 1.084 30 1.084 99.266 0.081 195.26-35.49 270.5-100.241l69.019 68.898zM241.34 132.002c66.497-57.003 149.353-91.452 236.659-98.402 0.841 9.801 1.267 19.716 1.28 29.743 0.068 82.295-28.826 161.988-81.619 225.118l-156.32-156.459z" />
<glyph unicode="&#xe929;" glyph-name="battery-charging" d="M96 315.401v265.199c0.021 15.747 6.286 30.844 17.421 41.979s26.231 17.4 41.979 17.421h274.88l48.798 64h-323.678c-32.716-0.037-64.082-13.050-87.216-36.184s-36.147-54.5-36.184-87.216v-265.199c0.037-32.717 13.050-64.081 36.184-87.215s54.5-36.147 87.216-36.186h193.7c-0.625 4.877-0.449 9.822 0.52 14.639l0.3 1.502 0.42 1.459 13 46.4h-207.94c-15.747 0.021-30.844 6.285-41.979 17.421s-17.4 26.231-17.421 41.98zM772.599 704h-197.278c0.585-4.798 0.405-9.659-0.542-14.4l-0.299-1.48-0.422-1.46-13.077-46.66h211.618c15.748-0.021 30.844-6.286 41.98-17.421s17.399-26.231 17.421-41.979v-265.199c-0.021-15.748-6.285-30.844-17.421-41.98s-26.231-17.399-41.98-17.421h-278.601l-48.841-64h327.441c32.717 0.038 64.081 13.052 87.215 36.186s36.147 54.498 36.186 87.215v265.199c-0.038 32.716-13.052 64.082-36.186 87.216s-54.498 36.147-87.215 36.184zM325.3 371.678c-8.873 0-17.579 2.419-25.177 7.002s-13.803 11.153-17.943 18.999c-4.283 8.051-6.282 17.122-5.781 26.227s3.482 17.899 8.621 25.434l0.62 0.922 0.66 0.879 108.94 142.86h-215.86c-10.609 0-20.783-4.215-28.284-11.716s-11.716-17.676-11.716-28.284v-212.001c0-10.607 4.215-20.783 11.716-28.284s17.676-11.716 28.284-11.716h196.84l19.56 69.722-70.48-0.043zM552.141 398.225l54.14 70.98c0.759 1.161 1.284 2.458 1.54 3.823 0.081 0.435 0.132 0.875 0.158 1.318 0.060 0.862 0.004 1.728-0.158 2.581-0.235 1.237-0.695 2.423-1.361 3.499-0.435 0.7-0.96 1.335-1.562 1.899-0.294 0.282-0.619 0.538-0.96 0.759-0.678 0.482-1.425 0.853-2.219 1.101-0.849 0.269-1.732 0.405-2.62 0.401h-123.243l59.721 212.94c0.064 0.364 0.098 0.731 0.102 1.1 0 0.12 0 0.22 0 0.32s0 0.52-0.102 0.76c-0.098 0.24 0 0.18 0 0.28-0.077 0.311-0.192 0.613-0.337 0.9-0.158 0.271-0.333 0.531-0.521 0.78l-0.179 0.2c-0.158 0.163-0.324 0.317-0.503 0.46l-0.201 0.16c-0.247 0.179-0.508 0.339-0.777 0.48-0.265 0.123-0.538 0.217-0.823 0.28h-1.178c-0.299 0.029-0.602 0.029-0.9 0-0.29-0.067-0.572-0.167-0.841-0.3l-0.26-0.14-0.597-0.42-0.222-0.2c-0.269-0.245-0.512-0.52-0.721-0.82l-35.998-47.26-26.283-34.44-19.699-25.66-127.419-167.101c-0.335-0.508-0.63-1.045-0.88-1.6-0.32-0.695-0.555-1.429-0.7-2.18-0.172-0.849-0.226-1.715-0.16-2.577 0.067-1.459 0.461-2.884 1.154-4.169s1.665-2.398 2.846-3.255c0.346-0.226 0.707-0.435 1.080-0.619 1.178-0.567 2.471-0.862 3.78-0.858h123.238l-59.639-212.843c-0.029-0.371-0.029-0.747 0-1.118 0 0 0-0.201 0-0.303 0.019-0.256 0.059-0.508 0.12-0.759-0.011-0.094-0.011-0.188 0-0.277 0.080-0.311 0.194-0.614 0.34-0.9 0.157-0.265 0.331-0.521 0.52-0.759l0.18-0.201 0.5-0.482c0.075-0.043 0.143-0.094 0.2-0.158 0.244-0.179 0.505-0.337 0.78-0.461 0.266-0.115 0.54-0.209 0.82-0.282h0.26c0.219-0.017 0.44-0.017 0.66 0h0.26c0.303 0.013 0.605 0.051 0.9 0.119 0.284 0.077 0.559 0.188 0.82 0.32l0.26 0.141 0.6 0.422 0.22 0.179c0.271 0.243 0.512 0.521 0.72 0.819l46.64 60.898 35.059 46.003 73.442 96.218zM639.002 446.14l-0.922-1.199-109.060-142.942h219.601c10.607 0 20.783 4.215 28.284 11.716s11.716 17.677 11.716 28.284v212.001c0 10.609-4.215 20.783-11.716 28.284s-17.677 11.716-28.284 11.716h-200.521l-19.482-69.46h70.481c8.789 0.013 17.421-2.359 24.973-6.852 7.552-4.497 13.747-10.957 17.929-18.688 4.343-7.979 6.451-16.986 6.101-26.065-0.354-9.079-3.153-17.894-8.102-25.515l-0.998-1.28zM960 554.656c-8.486 0-16.627-3.372-22.626-9.373-6.003-6.001-9.374-14.139-9.374-22.626v-149.321c0-8.491 3.371-16.627 9.374-22.63 5.999-5.999 14.14-9.37 22.626-9.37s16.627 3.371 22.626 9.37c6.003 6.003 9.374 14.14 9.374 22.63v149.321c0 8.486-3.371 16.624-9.374 22.626-5.999 6.001-14.14 9.373-22.626 9.373z" />
<glyph unicode="&#xe92a;" glyph-name="battery-dead" d="M153.4 640c-32.806 0-59.4-26.594-59.4-59.4v-265.199c0-32.806 26.595-59.401 59.4-59.401h617.199c32.806 0 59.401 26.594 59.401 59.401v265.199c0 32.806-26.594 59.4-59.401 59.4h-617.199zM30 580.6c0 68.152 55.248 123.4 123.4 123.4h617.199c68.151 0 123.401-55.248 123.401-123.4v-265.199c0-68.151-55.249-123.401-123.401-123.401h-617.199c-68.152 0-123.4 55.249-123.4 123.401v265.199zM957.999 554.656c17.673 0 32-14.327 32-31.998v-149.321c0-17.677-14.327-32-32-32s-32 14.323-32 32v149.321c0 17.671 14.327 31.998 32 31.998z" />
<glyph unicode="&#xe92b;" glyph-name="battery-full" d="M155.4 640c-32.806 0-59.4-26.594-59.4-59.4v-265.199c0-32.806 26.594-59.401 59.4-59.401h617.199c32.806 0 59.401 26.594 59.401 59.401v265.199c0 32.806-26.594 59.4-59.401 59.4h-617.199zM32 580.6c0 68.152 55.248 123.4 123.4 123.4h617.199c68.151 0 123.401-55.248 123.401-123.4v-265.199c0-68.151-55.249-123.401-123.401-123.401h-617.199c-68.152 0-123.4 55.249-123.4 123.401v265.199zM748.642 562.147h-569.26c-4.418 0-8-3.581-8-8v-212.28c0-4.416 3.582-8 8-8h569.26c4.42 0 8 3.584 8 8v212.28c0 4.419-3.58 8-8 8zM203.383 530.146v-164.279h521.26v164.279h-521.26zM139.383 554.147c0 22.092 17.909 40 40 40h569.26c22.093 0 40-17.908 40-40v-212.28c0-22.093-17.907-40-40-40h-569.26c-22.091 0-40 17.907-40 40v212.28zM960 554.656c17.673 0 32-14.327 32-31.998v-149.321c0-17.677-14.327-32-32-32s-32 14.323-32 32v149.321c0 17.671 14.327 31.998 32 31.998z" />
<glyph unicode="&#xe92c;" glyph-name="battery-half" d="M155.4 640c-32.806 0-59.4-26.594-59.4-59.4v-265.199c0-32.806 26.594-59.401 59.4-59.401h617.199c32.806 0 59.401 26.594 59.401 59.401v265.199c0 32.806-26.594 59.4-59.401 59.4h-617.199zM32 580.6c0 68.152 55.248 123.4 123.4 123.4h617.199c68.151 0 123.401-55.248 123.401-123.4v-265.199c0-68.151-55.249-123.401-123.401-123.401h-617.199c-68.152 0-123.4 55.249-123.4 123.401v265.199zM472.004 562.147h-292.622c-4.418 0-8-3.581-8-8v-212.259c0-4.42 3.582-8 8-8h292.622c4.416 0 8 3.58 8 8v212.259c0 4.419-3.584 8-8 8zM203.383 530.146v-164.258h244.622v164.258h-244.622zM139.383 554.147c0 22.092 17.909 40 40 40h292.622c22.089 0 40-17.908 40-40v-212.259c0-22.093-17.911-40-40-40h-292.622c-22.091 0-40 17.907-40 40v212.259zM960 554.656c17.673 0 32-14.327 32-31.998v-149.321c0-17.677-14.327-32-32-32s-32 14.323-32 32v149.321c0 17.671 14.327 31.998 32 31.998z" />
<glyph unicode="&#xe92d;" glyph-name="beaker" d="M888 896h-632c-38.76 0-91.8-8.68-128.22-49.54-23.44-26.3-31.78-57.78-31.78-78.46-0.001-7.725 2.793-15.19 7.866-21.017s12.082-9.621 19.734-10.683c59.8-8.3 68.4-11.88 68.4-48.3v-528c0.037-42.423 16.906-83.098 46.904-113.097s70.673-46.865 113.096-46.903h384c42.415 0.060 83.081 16.934 113.071 46.929 29.995 29.99 46.869 70.656 46.929 113.071v608c0 25.1 14.921 54.5 20.002 62.72l0.196 0.28c0.439 0.7 1.003 1.44 1.562 2.2 4.002 5.58 10.18 14 10.18 25.9 0.060 21.32-18.159 36.9-39.94 36.9zM168.22 793.84c10.48 17.74 34.34 38 88.58 38h588.862c-7.061-17.58-13.662-40.38-13.662-63.84v-128h-576v48c0 74.64-42.7 96.28-87.78 105.84z" />
<glyph unicode="&#xe92e;" glyph-name="bed" d="M864 498.603c-20.173 8.853-41.967 13.419-64 13.397h-576c-22.030 0.021-43.824-4.535-64-13.38-28.516-12.467-52.781-32.977-69.83-59.017-17.049-26.035-26.143-56.478-26.17-87.603v-224c0-8.486 3.372-16.627 9.373-22.626 6.001-6.003 14.141-9.374 22.627-9.374s16.626 3.371 22.627 9.374c6.001 5.999 9.373 14.14 9.373 22.626v16c0.052 4.228 1.754 8.269 4.744 11.255 2.989 2.991 7.029 4.693 11.256 4.745h736c4.228-0.051 8.269-1.754 11.255-4.745 2.991-2.987 4.693-7.027 4.745-11.255v-16c0-8.486 3.371-16.627 9.374-22.626 5.999-6.003 14.14-9.374 22.626-9.374s16.627 3.371 22.626 9.374c6.003 5.999 9.374 14.14 9.374 22.626v224c-0.030 31.121-9.126 61.559-26.176 87.595-17.050 26.031-41.31 46.537-69.824 59.008zM752 800h-480c-29.704 0-58.192-11.8-79.196-32.804s-32.804-49.492-32.804-79.196v-144c0.001-1.24 0.29-2.462 0.844-3.571s1.359-2.074 2.35-2.819c0.991-0.745 2.141-1.249 3.361-1.473s2.474-0.161 3.665 0.183c17.469 5.109 35.579 7.695 53.78 7.68h8.46c1.975-0.012 3.884 0.706 5.361 2.016s2.417 3.121 2.639 5.084c1.745 15.636 9.189 30.081 20.91 40.577s26.897 16.307 42.63 16.323h112c15.744-0.001 30.933-5.805 42.667-16.303s19.187-24.951 20.932-40.597c0.222-1.962 1.165-3.773 2.641-5.084s3.383-2.029 5.359-2.016h48.922c1.975-0.012 3.883 0.706 5.359 2.016 1.481 1.311 2.419 3.121 2.641 5.084 1.745 15.626 9.178 30.063 20.885 40.557s26.871 16.312 42.594 16.343h112c15.744-0.001 30.933-5.805 42.667-16.303s19.187-24.951 20.932-40.597c0.222-1.962 1.165-3.773 2.641-5.084s3.383-2.029 5.359-2.016h8.401c18.202 0.009 36.314-2.584 53.781-7.7 1.19-0.344 2.449-0.407 3.669-0.182s2.372 0.731 3.362 1.478c0.994 0.747 1.796 1.715 2.351 2.826 0.55 1.111 0.841 2.336 0.836 3.578v144c0 29.704-11.802 58.192-32.802 79.196-21.005 21.004-49.493 32.804-79.198 32.804z" />
<glyph unicode="&#xe92f;" glyph-name="beer" d="M783.996 544.005h-48v11.48c16.137 18.247 26.726 40.724 30.519 64.785s0.631 48.705-9.105 71.032c-9.741 22.327-25.651 41.407-45.867 54.995-20.22 13.588-43.895 21.12-68.245 21.707-10.21 35.639-29.18 68.155-55.181 94.58-20.322 20.797-44.608 37.304-71.424 48.541-26.82 11.238-55.62 16.977-84.698 16.879-59.818 0-115.558-24.56-157.998-69.36-20.83 6.637-43.147 7.032-64.198 1.138s-39.919-17.821-54.274-34.308c-14.355-16.488-23.571-36.817-26.512-58.48s0.523-43.712 9.964-63.43c-15.15-13.446-26.887-30.301-34.244-49.174s-10.123-39.225-8.070-59.377c2.053-20.152 8.866-39.528 19.878-56.53 11.011-17.004 25.906-31.143 43.456-41.26v-417.22c0.032-29.692 11.842-58.163 32.839-79.159s49.466-32.806 79.161-32.841h351.998c29.696 0.034 58.167 11.844 79.164 32.841s32.806 49.468 32.836 79.159v16h48c38.178 0.043 74.782 15.228 101.777 42.223 26.999 26.999 42.185 63.599 42.223 101.777v160c-0.038 38.178-15.223 74.782-42.223 101.777-26.995 26.995-63.599 42.182-101.777 42.224zM351.997 128.004c0-8.486-3.372-16.627-9.373-22.626-6.001-6.003-14.141-9.374-22.627-9.374s-16.626 3.371-22.627 9.374c-6.001 5.999-9.373 14.14-9.373 22.626v320c0 8.486 3.372 16.627 9.373 22.63 6.001 5.999 14.141 9.37 22.627 9.37s16.626-3.371 22.627-9.37c6.001-6.003 9.373-14.144 9.373-22.63v-320zM479.996 128.004c0-8.486-3.371-16.627-9.37-22.626-6.003-6.003-14.14-9.374-22.63-9.374-8.486 0-16.623 3.371-22.626 9.374-6.001 5.999-9.373 14.14-9.373 22.626v320c0 8.486 3.372 16.627 9.373 22.63 6.003 5.999 14.139 9.37 22.626 9.37 8.491 0 16.627-3.371 22.63-9.37 5.999-6.003 9.37-14.144 9.37-22.63v-320zM607.996 128.004c0-8.486-3.371-16.627-9.37-22.626-6.003-6.003-14.14-9.374-22.63-9.374-8.486 0-16.623 3.371-22.626 9.374-5.999 5.999-9.374 14.14-9.374 22.626v320c0 8.486 3.375 16.627 9.374 22.63 6.003 5.999 14.14 9.37 22.626 9.37 8.491 0 16.627-3.371 22.63-9.37 5.999-6.003 9.37-14.144 9.37-22.63v-320zM639.996 576.005c-16.657 0-41.097 10.36-53.38 22.62-5.995 6.002-14.131 9.376-22.618 9.38h-244c-6.555-0.015-12.948-2.042-18.314-5.809s-9.445-9.090-11.686-15.251c-13.66-37.36-47.2-42.94-66-42.94-16.974 0-33.252 6.743-45.255 18.745s-18.745 28.281-18.745 45.255c0 16.974 6.743 33.253 18.745 45.255s28.281 18.745 45.255 18.745c0.18 0 18.24-0.68 32.8-11.6 3.362-2.522 7.188-4.356 11.258-5.399s8.307-1.274 12.467-0.679c4.16 0.594 8.162 2.002 11.778 4.143s6.775 4.974 9.296 8.335c2.522 3.362 4.356 7.187 5.399 11.258s1.274 8.307 0.679 12.467c-0.594 4.16-2.002 8.163-4.143 11.779s-4.973 6.775-8.335 9.296c-20.734 15.119-45.551 23.624-71.2 24.4-9.421-0.006-18.812-1.059-28-3.14-3.175 7.302-4.484 15.28-3.808 23.215s3.315 15.575 7.68 22.236c4.365 6.66 10.318 12.13 17.323 15.916s14.842 5.771 22.805 5.774c7.56 0.036 15.020-1.73 21.76-5.152s12.569-8.403 17-14.528c3.606-4.974 6.759-10.262 9.42-15.8 0.868-8.155 4.835-15.665 11.080-20.981s14.293-8.030 22.482-7.584c8.189 0.447 15.894 4.020 21.524 9.983s8.756 13.86 8.733 22.061c0 13.54-7.22 30.34-21.52 50-0.92 1.26-2 2.5-2.9 3.72 29.2 27.4 65.7 42.28 104.418 42.28 20.578 0.059 40.96-4.013 59.934-11.977s36.156-19.656 50.526-34.383c17.975-18.442 31.245-40.942 38.69-65.595 7.441-24.654 8.836-50.737 4.070-76.045-0.785-4.128-0.751-8.372 0.107-12.487 0.853-4.115 2.509-8.022 4.873-11.497s5.393-6.45 8.905-8.755c3.516-2.305 7.45-3.896 11.58-4.681 1.975-0.372 3.985-0.559 5.999-0.56 7.441 0.007 14.643 2.607 20.373 7.353 5.734 4.745 9.63 11.339 11.025 18.647 2.436 12.808 3.75 25.804 3.921 38.84 15.642-2.992 29.606-11.709 39.164-24.448 9.562-12.739 14.025-28.584 12.527-44.439-1.502-15.855-8.858-30.582-20.638-41.302-11.776-10.72-27.127-16.665-43.055-16.671zM863.996 240.004c0-21.218-8.427-41.566-23.428-56.567-15.006-15.002-35.354-23.433-56.572-23.433h-48v320h48c21.218 0 41.566-8.427 56.572-23.433 15.002-15.002 23.428-35.349 23.428-56.567v-160z" />
<glyph unicode="&#xe930;" glyph-name="bicycle" d="M776 64c-36.39 0-71.966 10.795-102.225 31.010-30.259 20.22-53.841 48.956-67.767 82.577s-17.57 70.618-10.47 106.313c7.1 35.691 24.623 68.476 50.355 94.208s58.517 43.26 94.212 50.359c35.691 7.1 72.687 3.456 106.308-10.47s62.362-37.513 82.577-67.772c20.22-30.259 31.010-65.83 31.010-102.225-0.051-48.781-19.456-95.552-53.952-130.048s-81.263-53.897-130.048-53.952zM776 368c-23.735 0-46.933-7.036-66.667-20.224-19.738-13.184-35.115-31.927-44.198-53.854s-11.46-46.054-6.831-69.333c4.634-23.275 16.060-44.659 32.845-61.44 16.781-16.781 38.161-28.211 61.44-32.841 23.279-4.634 47.407-2.257 69.333 6.827s40.67 24.465 53.854 44.198c13.188 19.733 20.224 42.935 20.224 66.667-0.038 31.817-12.693 62.315-35.187 84.813-22.498 22.498-52.996 35.153-84.813 35.187zM247.997 64c-36.392 0-71.966 10.795-102.225 31.010-30.258 20.22-53.842 48.956-67.769 82.577s-17.57 70.618-10.471 106.313c7.1 35.691 24.624 68.476 50.357 94.208s58.519 43.26 94.211 50.359c35.693 7.1 72.689 3.456 106.31-10.47s62.359-37.513 82.577-67.772c20.218-30.259 31.008-65.83 31.008-102.225-0.051-48.781-19.454-95.552-53.949-130.048s-81.265-53.897-130.049-53.952zM247.997 368c-23.734 0-46.935-7.036-66.668-20.224-19.734-13.184-35.115-31.927-44.197-53.854s-11.459-46.054-6.829-69.333c4.63-23.275 16.059-44.659 32.841-61.44s38.164-28.211 61.442-32.841c23.278-4.634 47.406-2.257 69.333 6.827s40.669 24.465 53.854 44.198c13.186 19.733 20.224 42.935 20.224 66.667-0.037 31.817-12.692 62.315-35.188 84.813s-52.997 35.153-84.812 35.187zM640.009 704c8.431-0.029 16.781 1.613 24.572 4.831s14.869 7.95 20.821 13.92c5.948 5.97 10.658 13.061 13.854 20.862 3.191 7.801 4.809 16.158 4.753 24.588 0.094 8.387-1.485 16.709-4.646 24.479s-7.838 14.831-13.76 20.772c-5.922 5.94-12.971 10.64-20.727 13.825-7.761 3.185-16.077 4.791-24.465 4.724-8.405 0.026-16.734-1.603-24.508-4.795s-14.844-7.884-20.809-13.809c-5.961-5.925-10.697-12.965-13.935-20.72-3.243-7.755-4.924-16.072-4.949-24.477s1.604-16.732 4.796-24.507c3.191-7.775 7.885-14.845 13.807-20.806 5.926-5.961 12.966-10.698 20.719-13.938 7.757-3.241 16.073-4.922 24.478-4.948zM735.1 576.001h-87.522c-1.434 0-2.842 0.386-4.079 1.117-1.233 0.732-2.249 1.783-2.94 3.043l-63.479 116.34c-4.471 8.646-10.918 16.117-18.816 21.809s-17.020 9.444-26.637 10.953c-9.617 1.509-19.456 0.733-28.715-2.266-9.263-2.999-17.685-8.136-24.593-14.996l-139.719-140.8c-11.738-11.981-18.401-28.029-18.6-44.801 0-34.799 25.2-47.198 37-54.199 57-32.841 97.14-56.858 119.16-70.199 1.169-0.713 2.138-1.715 2.812-2.91 0.67-1.195 1.024-2.539 1.028-3.908v-138.24c0-17.22 13.239-32 30.46-32.862 4.322-0.209 8.644 0.461 12.702 1.971 4.053 1.51 7.765 3.827 10.897 6.81 3.136 2.987 5.636 6.575 7.343 10.551s2.594 8.26 2.598 12.587v172.002c0.004 5.077-1.203 10.086-3.52 14.609-2.317 4.518-5.675 8.427-9.801 11.392l-74.001 53.218c-0.926 0.666-1.702 1.519-2.274 2.509s-0.922 2.091-1.033 3.226c-0.111 1.139 0.026 2.287 0.397 3.366s0.969 2.069 1.749 2.897l84.002 89.582c0.862 0.922 1.929 1.626 3.115 2.057s2.453 0.575 3.708 0.421c1.25-0.154 2.449-0.602 3.494-1.307s1.911-1.648 2.522-2.751l43.639-78.761c2.773-4.992 6.835-9.152 11.759-12.045 4.924-2.897 10.53-4.42 16.243-4.416h112c4.335-0.004 8.627 0.87 12.612 2.577 3.985 1.702 7.586 4.198 10.577 7.334s5.316 6.848 6.831 10.91c1.515 4.062 2.189 8.39 1.98 12.72-0.841 17.22-15.68 30.46-32.9 30.46z" />
<glyph unicode="&#xe931;" glyph-name="bluetooth" d="M776 638.455c0.209 5.508-0.721 11.001-2.735 16.132s-5.065 9.792-8.964 13.688l-224 224c-5.594 5.599-12.723 9.414-20.484 10.96s-15.804 0.756-23.117-2.272c-7.313-3.028-13.564-8.157-17.958-14.737-4.399-6.58-6.741-14.318-6.741-22.232v-329.040l-157.999 135.42c-8.096 6.577-18.441 9.73-28.83 8.789s-19.997-5.903-26.78-13.828c-6.782-7.924-10.201-18.185-9.526-28.594s5.388-20.143 13.136-27.126l188.542-161.619-188.542-161.621c-4.145-3.366-7.573-7.526-10.083-12.241-2.511-4.71-4.052-9.877-4.534-15.198-0.482-5.316 0.106-10.675 1.728-15.761 1.622-5.090 4.247-9.801 7.718-13.854 3.472-4.058 7.721-7.377 12.496-9.766s9.981-3.797 15.308-4.143c5.328-0.346 10.672 0.38 15.715 2.133 5.043 1.749 9.685 4.497 13.651 8.073l157.999 135.42v-329.041c0.004-7.91 2.351-15.642 6.746-22.221 4.395-6.575 10.641-11.699 17.95-14.729 7.309-3.025 15.347-3.819 23.108-2.274 7.757 1.54 14.882 5.35 20.476 10.944l224 224c3.9 3.9 6.946 8.559 8.956 13.692s2.935 10.628 2.722 16.137c-0.213 5.508-1.566 10.91-3.968 15.872-2.398 4.962-5.803 9.374-9.988 12.958l-188.54 161.621 188.54 161.619c4.194 3.582 7.607 7.993 10.014 12.956 2.411 4.963 3.767 10.371 3.985 15.884zM677.163 253.734l-125.163-125.18v232.461l125.163-107.281zM552 534.955v232.48l125.18-125.18-125.18-107.3z" />
<glyph unicode="&#xe932;" glyph-name="boat" d="M832 13.722c0 2.458-0.666 4.868-1.92 6.98-1.259 2.112-3.059 3.849-5.222 5.018-54.14 29.103-103.518 73.643-125.239 96-3.226 3.383-7.531 5.538-12.177 6.089-4.642 0.55-9.331-0.533-13.261-3.068-100.659-64.841-223.219-64.879-323.9-0.098-3.965 2.56-8.7 3.648-13.385 3.076-4.684-0.567-9.021-2.761-12.256-6.199-21.54-22.558-70.38-66.598-124.86-95.497-2.166-1.088-4.018-2.714-5.38-4.719s-2.188-4.326-2.4-6.741c-0.162-2.057 0.15-4.122 0.913-6.037s1.955-3.631 3.486-5.013c1.53-1.382 3.358-2.394 5.342-2.957s4.070-0.666 6.099-0.294c41.7 8.363 82 27.362 120.4 47.663 2.464 1.297 5.202 1.984 7.985 2.005s5.532-0.627 8.015-1.886c51.989-26.432 109.486-40.209 167.811-40.209 58.321 0 115.819 13.777 167.808 40.209 2.513 1.271 5.291 1.924 8.107 1.903 2.812-0.021 5.581-0.717 8.073-2.022 38.199-20.002 78.443-39.181 120-47.603 1.967-0.375 3.989-0.311 5.926 0.192 1.933 0.503 3.733 1.429 5.265 2.714s2.761 2.897 3.593 4.715c0.832 1.822 1.246 3.802 1.216 5.803l-0.038-0.021zM953.421 466.18c-6.98 16.781-21.803 29.781-41.801 36.698l-47.62 18.961v166.161c0 33.948-13.487 66.505-37.491 90.51s-56.563 37.49-90.509 37.49h-64v16c0 21.217-8.427 41.565-23.433 56.569-15.002 15.003-35.349 23.431-56.567 23.431h-160c-21.217 0-41.566-8.428-56.569-23.431s-23.431-35.351-23.431-56.569v-16h-64c-33.948 0-66.505-13.486-90.51-37.49s-37.49-56.562-37.49-90.51v-166.302l-47.16-18.778c-19.88-6.601-35.26-20.002-42.3-36.881-4.9-11.78-10.5-29.999-2.6-52.919l0.2-0.602 93.32-238.878c3.438-8.777 9.453-16.307 17.254-21.598s17.021-8.094 26.446-8.043c1 0 2 0 3.060 0.098 62.64 4.002 112 34.543 145.2 63.223 47.42-40.943 103.199-63.322 158.58-63.322s110.861 22.4 158.281 63.398c33.178-28.719 82.598-59.337 145.22-63.3 9.911-0.695 19.789 1.788 28.194 7.091 8.405 5.299 14.903 13.146 18.543 22.391l93.303 237.999c6.558 16.179 5.798 35.52-2.121 54.601zM538.001 651.58l-2.283 0.8c-15.445 4.86-32.013 4.86-47.458 0l-1.161-0.36-252.14-100.46c-1.214-0.484-2.528-0.663-3.828-0.521s-2.544 0.599-3.625 1.334c-1.082 0.734-1.967 1.722-2.578 2.877s-0.93 2.443-0.929 3.75v129c0 16.974 6.743 33.253 18.745 45.255s28.281 18.745 45.255 18.745h448c16.973 0 33.254-6.743 45.257-18.745s18.743-28.281 18.743-45.255v-128.88c0-1.307-0.316-2.594-0.93-3.75-0.61-1.155-1.493-2.143-2.577-2.877-1.079-0.734-2.325-1.192-3.627-1.334-1.297-0.142-2.611 0.037-3.827 0.521l-251.038 99.9z" />
<glyph unicode="&#xe933;" glyph-name="body" d="M512 736c61.854 0 112 50.144 112 112s-50.146 112-112 112c-61.854 0-112-50.144-112-112s50.146-112 112-112zM874.001 704.009h-724.001c-14.321 0-28.057-5.689-38.184-15.816s-15.816-23.862-15.816-38.184c0-14.322 5.689-28.057 15.816-38.184s23.862-15.816 38.184-15.816h203.76c13.82 0 30-6.18 39.16-30 10.7-27.66 5.46-81.081-1.14-122.459l-8.64-48.9c0.016-0.128 0.003-0.256-0.038-0.38-0.042-0.119-0.111-0.23-0.201-0.32l-69.2-393.621c-2.509-14.285 0.742-28.988 9.045-40.883s20.978-20.023 35.255-22.596c7.059-1.246 14.295-1.079 21.289 0.491s13.606 4.514 19.452 8.661c5.847 4.147 10.81 9.417 14.604 15.497 3.794 6.084 6.342 12.86 7.496 19.934l47.819 273.6c0 0 15.343 64.977 43.341 64.977 28.459 0 43.482-64.977 43.482-64.977l47.817-273.843c1.161-7.134 3.725-13.969 7.548-20.105 3.827-6.135 8.836-11.447 14.733-15.629 5.901-4.181 12.574-7.142 19.627-8.721 7.057-1.574 14.357-1.728 21.474-0.457 7.117 1.276 13.909 3.955 19.981 7.881s11.298 9.020 15.381 14.989c4.083 5.965 6.938 12.685 8.397 19.767 1.459 7.078 1.493 14.383 0.102 21.474l-69.222 393.621c0.017 0.124 0.004 0.252-0.034 0.371-0.038 0.124-0.102 0.235-0.183 0.329l-8.661 48.9c-6.601 41.378-11.84 94.8-1.139 122.46 9.118 23.76 25.818 30 38.558 30h204.143c14.319 0 28.058 5.689 38.182 15.816 10.129 10.127 15.817 23.862 15.817 38.184s-5.687 28.057-15.817 38.184c-10.125 10.127-23.863 15.816-38.182 15.816v-0.060z" />
<glyph unicode="&#xe934;" glyph-name="bonfire" d="M546.761 223.266c-1.621 18.462-17.719 32.883-37.099 32.883-8.346 0.060-16.465-2.679-23.066-7.782-6.596-5.103-11.294-12.271-13.338-20.361l-36.399-176.721c-1.203-5.158-1.826-10.441-1.86-15.74 0-39.859 33.361-67.537 74.662-67.537 41.297 0 74.679 27.678 74.679 67.537-0.021 6.387-0.892 12.745-2.581 18.901l-34.999 168.819zM822.101 144.23c-3.708 3.243-7.693 6.161-11.904 8.717l-139.059 97.062c-13.538 8.478-27.998 8.26-38.498-2.001-4.582-4.356-7.492-10.185-8.222-16.465s0.764-12.621 4.22-17.916l105.003-138.001c2.406-3.337 5.082-6.473 8-9.378 18.197-20.322 58.56-21.44 80.738 0 21.879 21.918 21.619 60.779-0.277 77.982zM926.601 288.145h-140.838c-9.101 0-17.762-6.699-17.762-16.299s5.901-15.697 13.841-18.321l132.86-41.097c19.298-4.42 45.299 12.698 45.299 34.159 0 27.26-15.202 41.557-33.399 41.557zM256.44 271.846c0 9.899-9.1 16.299-18.9 16.299h-140.84c-17.74 0-32.7-19.157-32.7-40.619s25.24-39.518 44.6-35.098l134.86 41.097c8.78 2.62 12.98 8.482 12.98 18.321zM353.101 249.89l-139.1-96.721c-4.32-2.423-8.346-5.333-12-8.678-5.299-4.928-9.525-10.897-12.415-17.532s-4.381-13.79-4.381-21.026c0-7.236 1.492-14.396 4.381-21.030s7.116-12.604 12.415-17.532c10.916-10.295 25.354-16.030 40.36-16.030s29.444 5.734 40.36 16.030c2.973 2.846 5.653 5.982 8 9.361l105.080 137.259c7 11.14 5.84 24.96-4 34.001-5.185 4.838-11.917 7.689-19.002 8.034-7.085 0.35-14.064-1.826-19.698-6.135zM586.923 475.226c19.998 10.842 38.899 21.082 56.619 32.32 84.919 53.84 124.459 118 124.459 202 0 129.32-112.137 208.8-217.638 218-12.979 1.14-29.999 0.84-39.821-7.76-9.818-8.6-11.759-25.12-12.301-38.2-2.761-67.22-56.759-118-113.999-171.72-56-52.6-113.86-106.98-125.42-181.998-16.82-109.363 43.48-173.423 80.92-201.86 11.097-8.448 24.656-13.018 38.6-13.022 4.991 0.004 9.964 0.589 14.82 1.741 9.159 2.146 17.727 6.302 25.084 12.164s13.32 13.286 17.458 21.734c29.82 60.779 91.537 94.242 151.219 126.601zM279.64 646.868c24.44 31.52 54 59.36 82.74 86.3 39.84 37.44 75.619 71.16 93.001 107.72-24.482 14.74-54.721 22.72-93.021 22.72-35.58 0-40.78-10.36-40.78-38.12 0-25.12-13.060-41.080-28.68-61.3-17.3-22.38-36.9-47.72-36.9-85.86 0-20.46 2.58-37.54 8.4-52.74 4.667 7.093 9.747 14.187 15.24 21.28zM660.681 480.529c-18.662-11.84-37.999-22.323-58.5-33.421-57.822-31.36-112.418-60.962-137.762-112.563-1.28-2.637-2.496-5.001-3.759-7.219-1.105-1.967-1.783-4.147-1.984-6.396-0.205-2.249 0.073-4.514 0.806-6.647 0.734-2.138 1.911-4.092 3.456-5.739s3.418-2.948 5.504-3.819c24.619-10.197 50.257-16.538 77.82-16.538 58.364-0.388 114.547 22.14 156.48 62.737 20.787 20.169 37.282 44.326 48.495 71.027 11.217 26.701 16.917 55.394 16.764 84.356-0.013 10.057-0.905 20.096-2.658 29.999-0.516 2.948-1.852 5.693-3.849 7.921-2.001 2.228-4.582 3.852-7.458 4.685s-5.926 0.844-8.806 0.029c-2.88-0.815-5.474-2.42-7.488-4.635-20.361-22.942-45.862-44.002-77.060-63.778z" />
<glyph unicode="&#xe935;" glyph-name="book" d="M404.477 811.998c-72.26 34.5-173.26 51.4-308.48 52-12.753 0.173-25.255-3.546-35.84-10.66-8.688-5.873-15.8-13.79-20.711-23.056s-7.468-19.597-7.449-30.084v-572.2c0-38.682 27.52-67.861 64-67.861 142.14 0 284.72-13.278 370.119-93.999 1.169-1.109 2.637-1.852 4.224-2.133s3.221-0.090 4.698 0.55c1.481 0.64 2.739 1.698 3.618 3.046 0.883 1.348 1.348 2.927 1.34 4.535v674.222c0.004 4.549-0.969 9.045-2.85 13.186-1.886 4.141-4.638 7.828-8.068 10.814-19.563 16.723-41.293 30.73-64.6 41.64zM963.84 853.41c-10.59 7.097-23.095 10.795-35.84 10.6-135.219-0.6-236.22-17.42-308.48-52-23.309-10.891-45.043-24.87-64.619-41.56-3.426-2.991-6.17-6.68-8.051-10.82-1.877-4.14-2.85-8.634-2.85-13.18v-674.262c0-1.545 0.457-3.059 1.31-4.348 0.858-1.293 2.074-2.3 3.503-2.901 1.425-0.597 2.999-0.764 4.518-0.474 1.523 0.29 2.923 1.020 4.028 2.103 51.341 50.999 141.44 93.641 370.722 93.619 16.973 0 33.25 6.746 45.252 18.748s18.748 28.279 18.748 45.252v576.002c0.021 10.508-2.543 20.859-7.467 30.141-4.928 9.282-12.062 17.208-20.774 23.079z" />
<glyph unicode="&#xe936;" glyph-name="bookmark" d="M799.996 0c-7.825-0.021-15.39 2.825-21.257 8l-266.743 237.18-266.738-237.18c-4.616-4.105-10.321-6.784-16.426-7.714-6.105-0.934-12.35-0.081-17.981 2.458-5.631 2.534-10.407 6.647-13.752 11.84s-5.117 11.238-5.101 17.417v736c0.037 33.936 13.535 66.472 37.531 90.469s56.532 37.494 90.469 37.531h383.998c33.937-0.037 66.475-13.535 90.47-37.531s37.495-56.532 37.53-90.469v-736c0-8.486-3.371-16.627-9.37-22.626-6.003-6.003-14.14-9.374-22.63-9.374z" />
<glyph unicode="&#xe937;" glyph-name="bookmarks" d="M800 960h-448c-28.378-0.023-55.948-9.461-78.387-26.833s-38.481-41.699-45.613-69.167h455.998c39.253 0 76.898-15.593 104.653-43.348s43.349-65.4 43.349-104.652v-609.781l43.998-35.2c5.457-4.365 12.19-6.827 19.174-7.006 6.985-0.183 13.837 1.929 19.507 6.007 4.19 3.093 7.586 7.142 9.903 11.81s3.486 9.818 3.418 15.031v735.138c0 33.948-13.487 66.505-37.491 90.51s-56.563 37.49-90.509 37.49v0zM640.004 800h-416c-33.948 0-66.505-13.486-90.51-37.49s-37.49-56.562-37.49-90.51v-703.241c-0.079-5.188 1.077-10.317 3.372-14.972s5.664-8.691 9.828-11.789c5.785-4.198 12.81-6.345 19.955-6.084 7.145 0.256 13.998 2.897 19.465 7.505l283.38 238.741 283.379-238.639c5.431-4.578 12.233-7.219 19.328-7.505 7.1-0.286 14.089 1.796 19.874 5.922 4.215 3.089 7.633 7.138 9.967 11.814s3.516 9.839 3.452 15.066v703.181c0 33.948-13.487 66.505-37.491 90.51s-56.563 37.49-90.509 37.49z" />
<glyph unicode="&#xe938;" glyph-name="briefcase" d="M992 608c-0.038 33.936-13.534 66.472-37.53 90.469-24 23.997-56.533 37.494-90.47 37.531h-96v32c-0.026 25.453-10.15 49.855-28.147 67.853s-42.402 28.121-67.853 28.147h-320c-25.453-0.026-49.855-10.149-67.853-28.147s-28.12-42.4-28.147-67.853v-32h-96c-33.936-0.037-66.472-13.535-90.469-37.531s-37.494-56.532-37.531-90.469v-96h960v96zM704 736h-384v32c0 8.487 3.372 16.626 9.373 22.627s14.141 9.373 22.627 9.373h320c8.486 0 16.627-3.372 22.626-9.373 6.003-6.001 9.374-14.141 9.374-22.627v-32zM672 432c0-12.732-5.056-24.939-14.059-33.941s-21.21-14.059-33.941-14.059h-224c-12.73 0-24.94 5.056-33.941 14.059s-14.059 21.21-14.059 33.941v8c0 2.121-0.843 4.156-2.343 5.658-1.5 1.498-3.535 2.342-5.657 2.342h-312v-288c0-33.946 13.486-66.505 37.49-90.509s56.562-37.491 90.51-37.491h704c33.946 0 66.505 13.487 90.509 37.491s37.491 56.563 37.491 90.509v288h-312c-2.121 0-4.156-0.845-5.658-2.342-1.498-1.502-2.342-3.537-2.342-5.658v-8z" />
<glyph unicode="&#xe939;" glyph-name="browsers" d="M832 864h-640c-33.948 0-66.505-13.486-90.51-37.49s-37.49-56.562-37.49-90.51v-576c0-33.946 13.486-66.505 37.49-90.509s56.562-37.491 90.51-37.491h640c33.946 0 66.505 13.487 90.509 37.491s37.491 56.563 37.491 90.509v576c0 33.948-13.487 66.505-37.491 90.51s-56.563 37.49-90.509 37.49zM880 672h-736c-4.244 0-8.313 1.686-11.313 4.686s-4.687 7.070-4.687 11.314v48c0.047 16.959 6.806 33.21 18.798 45.202s28.243 18.75 45.202 18.798h640c16.96-0.047 33.212-6.806 45.201-18.798 11.994-11.992 18.752-28.243 18.799-45.202v-48c0-4.244-1.685-8.313-4.685-11.314-3.004-3-7.070-4.686-11.315-4.686z" />
<glyph unicode="&#xe93a;" glyph-name="brush" d="M466.304 239.782c-3.341-0.017-6.665 0.503-9.839 1.54-5.713 1.847-10.79 5.265-14.656 9.86-3.861 4.599-6.349 10.193-7.185 16.137-4.301 30.003-39.9 64.922-73.24 71.701-5.506 1.139-10.614 3.708-14.811 7.45-4.197 3.738-7.334 8.521-9.097 13.858s-2.086 11.046-0.94 16.55c1.146 5.504 3.721 10.611 7.468 14.801l422.179 470.201c0.38 0.44 0.781 0.86 1.182 1.26 21.21 21.149 49.937 33.026 79.889 33.026s58.684-11.877 79.889-33.026c21.141-21.155 33.037-49.827 33.079-79.735 0.038-29.908-11.776-58.612-32.858-79.825l-437.999-454.002c-2.987-3.098-6.571-5.564-10.534-7.249-3.959-1.685-8.222-2.551-12.527-2.547zM239.781-0.213c-64.28 0-130.9 33.779-169.7 85.999-3.536 4.762-5.68 10.411-6.191 16.32s0.629 11.844 3.295 17.143c2.666 5.295 6.751 9.749 11.801 12.86s10.865 4.757 16.795 4.757c10.68 0 40 9.741 40 41.139 0 78.14 62.8 141.722 140 141.722s140-63.582 140-141.722c0-98.24-78.96-178.219-176-178.219z" />
<glyph unicode="&#xe93b;" glyph-name="bug" d="M927.1 415.74h-127.1v96.401c0 5.76-0.179 11.405-0.542 16.939 59.14 55.761 64.503 129.26 64.542 206.001 0 17.22-13.282 32-30.498 32.82-4.322 0.203-8.636-0.472-12.685-1.983-4.053-1.511-7.753-3.827-10.884-6.808s-5.623-6.566-7.334-10.538c-1.707-3.972-2.59-8.248-2.598-12.571 0-56-3.721-96.3-19.802-127.68-38.438 82.3-131.558 127.82-268.198 127.82-79.599 0-148.38-18.26-198.86-52.78-29.8-20.38-52.4-45.82-67.4-75.44-17.74 30.78-21.74 70.080-21.74 127.16 0 17.22-13.2 32-30.4 32.88-4.332 0.217-8.662-0.449-12.729-1.957s-7.783-3.828-10.926-6.816c-3.142-2.989-5.644-6.586-7.354-10.572s-2.591-8.277-2.591-12.614c0-75.26 5.22-147.46 64.88-203.26-0.573-6.746-0.867-13.615-0.88-20.599v-96.401h-127.1c-17.22 0-32-13.239-32.86-30.46-0.209-4.331 0.465-8.657 1.979-12.719s3.839-7.774 6.831-10.91c2.993-3.136 6.591-5.632 10.577-7.339 3.986-1.702 8.277-2.577 12.612-2.573h128v-31.74c-0.029-36.796 7.025-73.254 20.78-107.379-51.34-45.901-84.46-96.623-84.82-179.302 0-17.481 13.24-32.597 30.72-33.297 4.307-0.175 8.605 0.525 12.634 2.057 4.030 1.527 7.709 3.857 10.818 6.844s5.581 6.571 7.27 10.534c1.689 3.968 2.559 8.235 2.558 12.544 0 55.322 18.2 89.421 52.34 122.641 39.369-56.038 97.375-96.26 163.66-113.481 4.727-1.22 9.673-1.344 14.455-0.358s9.28 3.051 13.137 6.042c3.861 2.991 6.989 6.827 9.139 11.209 2.15 4.386 3.268 9.203 3.268 14.089v502.959c0 17.22 13.239 32 30.46 32.86 4.326 0.209 8.653-0.464 12.71-1.975s7.77-3.833 10.906-6.821c3.136-2.988 5.632-6.582 7.339-10.564s2.586-8.268 2.586-12.6v-503.859c0-4.885 1.118-9.702 3.268-14.089 2.15-4.382 5.278-8.218 9.139-11.209 3.857-2.991 8.354-5.056 13.137-6.042s9.728-0.862 14.455 0.358c66.274 17.229 124.271 57.446 163.639 113.481 34.001-33.079 52.181-67.042 52.339-121.903-0.073-8.273 3.012-16.265 8.623-22.345 5.611-6.084 13.325-9.801 21.577-10.394 4.356-0.247 8.713 0.397 12.809 1.894 4.092 1.493 7.838 3.814 11.008 6.81 3.166 2.995 5.687 6.609 7.407 10.615s2.607 8.32 2.598 12.681c0 83.358-33.199 134.46-84.779 180.621 13.751 34.125 20.809 70.583 20.779 107.379v31.74h128c4.335-0.004 8.627 0.87 12.612 2.573 3.985 1.707 7.586 4.203 10.577 7.339s5.316 6.848 6.831 10.91c1.515 4.062 2.189 8.388 1.98 12.719-0.841 17.22-15.68 30.46-32.9 30.46zM642.778 752l0.64-0.18c27.14-7.6 50.142 21.1 36.403 45.7-16.606 29.835-40.879 54.693-70.31 72.006-29.427 17.313-62.946 26.452-97.092 26.474h-0.841c-34.487-0.023-68.331-9.349-97.965-26.993s-53.959-42.956-70.413-73.266c-13.68-25.16 10.28-54 37.68-45.72 39.42 12 83.581 18.12 131.121 18.12 48.179 0 92.177-5.44 130.778-16.14z" />
<glyph unicode="&#xe93c;" glyph-name="build" d="M939.081 718.954c-2.304 4.481-5.636 8.355-9.719 11.306-4.087 2.951-8.811 4.896-13.79 5.675s-10.069 0.372-14.861-1.188c-4.791-1.561-9.148-4.231-12.71-7.793l-122.88-122.96c-6.033-5.944-14.161-9.277-22.63-9.277s-16.597 3.333-22.63 9.277l-53.12 53.2c-2.974 2.971-5.329 6.499-6.938 10.382s-2.436 8.045-2.436 12.248c0 4.203 0.828 8.364 2.436 12.247s3.964 7.411 6.938 10.383l122.359 122.38c3.669 3.668 6.391 8.172 7.932 13.125s1.852 10.207 0.913 15.308c-0.943 5.101-3.106 9.897-6.315 13.975-3.204 4.078-7.356 7.315-12.087 9.433-92.42 41.32-207.782 19.76-280.521-52.44-61.803-61.36-80.221-157.24-50.5-263.060 1.6-5.643 1.613-11.619 0.026-17.268-1.583-5.648-4.702-10.748-9.007-14.733l-332.959-304.098c-12.971-11.648-23.434-25.813-30.749-41.638-7.316-15.821-11.331-32.969-11.802-50.394s2.614-34.765 9.065-50.961c6.452-16.196 16.134-30.903 28.458-43.234s27.030-22.020 43.222-28.476c16.192-6.46 33.53-9.553 50.956-9.088 17.426 0.461 34.575 4.471 50.402 11.78s29.997 17.762 41.649 30.729l307.36 333.7c3.93 4.25 8.939 7.347 14.498 8.956 5.559 1.613 11.452 1.677 17.041 0.183 30.127-8.252 61.205-12.535 92.442-12.74 66.799 0 125.419 21.623 167.697 63.283 78.302 77.137 90.24 207.979 52.262 281.779zM198.96 65.694c-13.172-1.438-26.466 1.25-38.046 7.689s-20.877 16.311-26.606 28.262c-5.729 11.947-7.609 25.378-5.38 38.438s8.457 25.109 17.825 34.479c9.367 9.374 21.413 15.603 34.473 17.839 13.061 2.231 26.493 0.358 38.442-5.367s21.827-15.019 28.271-26.594c6.443-11.58 9.134-24.875 7.7-38.046-1.577-14.494-8.055-28.015-18.362-38.323-10.307-10.313-23.825-16.794-38.318-18.377z" />
<glyph unicode="&#xe93d;" glyph-name="bulb" d="M576 32h-128c-8.486 0-16.627-3.371-22.627-9.374-6.001-5.999-9.373-14.14-9.373-22.626s3.372-16.627 9.373-22.626c6-6.003 14.141-9.374 22.627-9.374h128c8.486 0 16.627 3.371 22.626 9.374 6.003 5.999 9.374 14.14 9.374 22.626s-3.371 16.627-9.374 22.626c-5.999 6.003-14.14 9.374-22.626 9.374zM608 128h-192c-8.487 0-16.626-3.371-22.627-9.374-6.001-5.999-9.373-14.14-9.373-22.626s3.372-16.627 9.373-22.626c6.001-6.003 14.141-9.374 22.627-9.374h192c8.486 0 16.627 3.371 22.626 9.374 6.003 5.999 9.374 14.14 9.374 22.626s-3.371 16.627-9.374 22.626c-5.999 6.003-14.14 9.374-22.626 9.374zM738.842 834.619c-60.143 60.22-140.702 93.38-226.842 93.38-42.052 0.1-83.708-8.108-122.577-24.154s-74.186-39.613-103.92-69.348c-29.735-29.735-53.302-65.051-69.348-103.921s-24.254-80.526-24.154-122.577c0-93.239 35.74-180.462 98-239.278l8.72-8.183c36.020-33.677 85.28-79.817 85.28-120.538v-48c0-8.486 3.371-16.627 9.373-22.63 6.001-5.999 14.14-9.37 22.627-9.37h48c4.245 0 8.311 1.685 11.315 4.685 2.999 2.999 4.685 7.070 4.685 11.315v234.359c0 3.234-0.977 6.396-2.812 9.062-1.83 2.667-4.429 4.715-7.45 5.875-18.475 7.539-36.032 17.169-52.318 28.702-3.66 2.338-6.807 5.397-9.247 8.986-2.441 3.593-4.125 7.646-4.949 11.908-0.824 4.267-0.772 8.653 0.153 12.894 0.925 4.245 2.705 8.256 5.23 11.789s5.743 6.515 9.457 8.764c3.715 2.249 7.848 3.721 12.148 4.322s8.683 0.32 12.868-0.823c4.19-1.148 8.102-3.132 11.499-5.837 14.801-10.483 43.302-26.001 57.421-26.001s42.62 15.561 57.459 26.001c6.912 4.343 15.219 5.884 23.228 4.301 8.009-1.579 15.108-6.157 19.849-12.8 4.745-6.643 6.767-14.848 5.662-22.933-1.109-8.090-5.265-15.445-11.618-20.57-16.29-11.511-33.843-21.12-52.318-28.638-3.021-1.165-5.619-3.213-7.45-5.879s-2.812-5.828-2.812-9.062v-234.419c0-4.245 1.685-8.316 4.685-11.315 3.004-2.999 7.070-4.685 11.315-4.685h48c8.486 0 16.627 3.371 22.626 9.37 6.003 6.003 9.374 14.144 9.374 22.63v48c0 39.761 48.721 85.858 84.301 119.539l9.818 9.318c64.043 61.141 97.882 143.923 97.882 239.142 0.213 42.055-7.91 83.735-23.902 122.633s-39.531 74.24-69.257 103.987z" />
<glyph unicode="&#xe93e;" glyph-name="bus" d="M800 896h-576c-25.461 0-49.879-10.114-67.882-28.118s-28.118-42.421-28.118-67.882v-640c-0.001-13.495 2.849-26.842 8.364-39.159s13.569-23.33 23.636-32.32v-36.518c0-13.794 5.478-27.021 15.23-36.77 9.752-9.754 22.979-15.232 36.77-15.232h56c13.791 0 27.018 5.478 36.77 15.232 9.752 9.749 15.23 22.976 15.23 36.77v11.998h384v-11.998c0-13.794 5.478-27.021 15.232-36.77 9.749-9.754 22.976-15.232 36.77-15.232h55.996c13.794 0 27.021 5.478 36.77 15.232 9.754 9.749 15.232 22.976 15.232 36.77v36.518c10.065 8.99 18.121 20.002 23.637 32.32 5.513 12.318 8.363 25.664 8.363 39.159v640c0 25.461-10.116 49.879-28.117 67.882-18.005 18.004-42.423 28.118-67.883 28.118zM294.94 160.358c-13.172-1.434-26.464 1.259-38.042 7.701s-20.871 16.316-26.598 28.267c-5.726 11.947-7.603 25.378-5.371 38.438s8.462 25.105 17.831 34.475c9.369 9.37 21.414 15.599 34.474 17.83s26.491 0.354 38.44-5.372c11.948-5.726 21.825-15.019 28.267-26.598 6.442-11.575 9.132-24.866 7.698-38.042-1.577-14.494-8.058-28.019-18.369-38.327-10.311-10.313-23.834-16.794-38.33-18.372zM472 384h-248c-8.487 0-16.626 3.371-22.627 9.374-6.001 5.999-9.373 14.14-9.373 22.626v256c0 8.487 3.372 16.626 9.373 22.627s14.141 9.373 22.627 9.373h248c2.121 0 4.156-0.843 5.658-2.343 1.498-1.5 2.342-3.535 2.342-5.657v-304c0-2.121-0.845-4.156-2.342-5.658-1.502-1.498-3.537-2.342-5.658-2.342zM512 768h-287.080c-17.2 0-32 13.2-32.88 30.38-0.22 4.333 0.444 8.666 1.951 12.735s3.825 7.788 6.815 10.933c2.989 3.145 6.587 5.649 10.574 7.36s8.281 2.593 12.62 2.593h575.078c17.203 0 32-13.2 32.883-30.38 0.218-4.333-0.444-8.666-1.954-12.735-1.506-4.069-3.823-7.788-6.814-10.933s-6.588-5.649-10.573-7.36c-3.989-1.711-8.282-2.593-12.621-2.593h-288zM552 704h248c8.486 0 16.627-3.372 22.626-9.373 6.003-6.001 9.374-14.141 9.374-22.627v-256c0-8.486-3.371-16.627-9.374-22.626-5.999-6.003-14.14-9.374-22.626-9.374h-248c-2.121 0-4.156 0.845-5.658 2.342-1.498 1.502-2.342 3.537-2.342 5.658v304c0 2.122 0.845 4.157 2.342 5.657 1.502 1.501 3.537 2.343 5.658 2.343zM672.358 217.058c-1.434 13.175 1.259 26.466 7.701 38.042 6.443 11.58 16.316 20.873 28.267 26.598 11.947 5.726 25.378 7.603 38.438 5.372s25.105-8.461 34.475-17.83c9.37-9.37 15.599-21.414 17.83-34.475s0.354-26.492-5.372-38.438c-5.726-11.951-15.019-21.824-26.598-28.267-11.575-6.443-24.866-9.135-38.042-7.701-14.494 1.579-28.019 8.060-38.327 18.372-10.313 10.308-16.794 23.834-18.372 38.327z" />
</font>
</defs>
</svg>
